<svg width="39" height="40" viewBox="0 0 39 40" fill="none" xmlns="http://www.w3.org/2000/svg">
<path d="M38.2345 22.3441C35.7101 17.8868 31.3274 19.1485 26.388 19.1102C24.6796 19.0726 23.7887 16.9926 24.9403 15.7302C27.3549 13.4653 29.8065 11.646 30.7727 9.23221C32.2591 5.51865 31.1456 2.91865 27.432 1.43221C23.7185 -0.0542307 21.1185 1.05933 19.632 4.77288C18.6658 7.18669 19.1851 10.1951 19.1843 13.4262C19.1468 15.1346 17.0668 16.0254 15.8043 14.8738C12.2026 11.4933 10.0866 7.63033 5.18391 9.11473C3.43823 9.70854 2.10094 10.8967 1.43205 12.5678C-0.0543962 16.2813 1.05916 18.8813 4.77271 20.3678C7.18653 21.334 10.1949 20.8147 13.426 20.8155C15.1344 20.853 16.0252 22.933 14.8736 24.1955C12.6447 26.5347 10.1931 28.354 9.22694 30.7678C7.7405 34.4813 8.85405 37.0813 12.5676 38.5678C16.2812 40.0542 18.8812 38.9406 20.3676 35.2271C21.3338 32.8133 20.8146 29.8049 20.8153 26.5738C20.8529 24.8654 22.9329 23.9746 24.1953 25.1262C26.7202 27.4294 28.3538 29.8067 30.7676 30.7729C34.4812 32.2593 37.0812 31.1458 38.5676 27.4322C39.2365 25.7611 39.0884 23.9784 38.2345 22.3441Z" fill="#BB9CFE"/>
</svg>
