<svg width="52" height="52" viewBox="0 0 52 52" fill="none" xmlns="http://www.w3.org/2000/svg">
<path d="M44.2345 28.3441C41.7101 23.8868 37.3274 25.1485 32.388 25.1102C30.6796 25.0726 29.7887 22.9926 30.9403 21.7302C33.3549 19.4653 35.8065 17.646 36.7727 15.2322C38.2591 11.5187 37.1456 8.91865 33.432 7.43221C29.7185 5.94577 27.1185 7.05933 25.632 10.7729C24.6658 13.1867 25.1851 16.1951 25.1843 19.4262C25.1468 21.1346 23.0668 22.0254 21.8043 20.8738C18.2026 17.4933 16.0866 13.6303 11.1839 15.1147C9.43823 15.7085 8.10094 16.8967 7.43205 18.5678C5.9456 22.2813 7.05916 24.8813 10.7727 26.3678C13.1865 27.334 16.1949 26.8147 19.426 26.8155C21.1344 26.853 22.0252 28.933 20.8736 30.1955C18.6447 32.5347 16.1931 34.354 15.2269 36.7678C13.7405 40.4813 14.8541 43.0813 18.5676 44.5678C22.2812 46.0542 24.8812 44.9406 26.3676 41.2271C27.3338 38.8133 26.8146 35.8049 26.8153 32.5738C26.8529 30.8654 28.9329 29.9746 30.1953 31.1262C32.7202 33.4294 34.3538 35.8067 36.7676 36.7729C40.4812 38.2593 43.0812 37.1458 44.5676 33.4322C45.2365 31.7611 45.0884 29.9784 44.2345 28.3441Z" fill="#D06E51"/>
</svg>
