<svg width="97" height="96" viewBox="0 0 97 96" fill="none" xmlns="http://www.w3.org/2000/svg">
<path d="M62.6787 80.4047C50.0238 86.9322 34.6542 84.4726 24.6083 74.3123C14.5624 64.152 12.1252 48.6021 18.5713 35.7951C25.0174 22.9882 38.8808 15.8374 52.9106 18.0826C66.9405 20.3278 77.9457 31.4583 80.1705 45.6528C82.3953 59.8474 75.3336 73.8772 62.6787 80.4047Z" stroke="white" stroke-width="3"/>
<ellipse rx="11.4083" ry="11.5356" transform="matrix(0.987436 0.158019 -0.154462 0.987999 62.8006 80.9978)" fill="white" stroke="#CC6D51" stroke-width="4"/>
<ellipse rx="11.4083" ry="11.5356" transform="matrix(0.987436 0.158019 -0.154462 0.987999 24.312 74.8379)" fill="white" stroke="#CC6D51" stroke-width="4"/>
<ellipse rx="11.4083" ry="11.5356" transform="matrix(0.987436 0.158019 -0.154462 0.987999 18.8378 35.9944)" fill="white" stroke="#CC6D51" stroke-width="3"/>
<ellipse rx="11.4083" ry="11.5356" transform="matrix(0.987436 0.158019 -0.154462 0.987999 79.8561 45.7595)" fill="white" stroke="#CC6D51" stroke-width="4"/>
<path d="M51.3666 31.0366C58.4215 32.1656 65.0166 27.2946 66.1262 20.1972C67.2358 13.0998 62.4486 6.40725 55.3936 5.27825C48.3387 4.14925 41.7436 9.02026 40.634 16.1177C39.5244 23.2151 44.3116 29.9076 51.3666 31.0366Z" fill="white" stroke="#CC6D51" stroke-width="3"/>
<path d="M63.7499 13.3508C64.3621 14.6995 64.7221 16.1775 64.7789 17.7137L63.2807 17.7641C63.3045 18.4064 63.2674 19.0616 63.1639 19.7231C63.0605 20.3847 62.8959 21.0195 62.6774 21.6231L64.0871 22.1388C63.5644 23.5823 62.7711 24.8757 61.7774 25.9673L60.6678 24.9544C59.785 25.9242 58.721 26.7104 57.542 27.2656L58.184 28.6241C56.8438 29.2553 55.3727 29.6279 53.8428 29.689L53.7779 28.1894C53.1393 28.215 52.4878 28.1779 51.83 28.0726C51.1722 27.9674 50.5412 27.7992 49.9415 27.5755L49.4223 28.9816C47.9857 28.4457 46.7002 27.632 45.6179 26.6132L46.6429 25.5215C45.6909 24.6252 44.9187 23.5451 44.3748 22.347L43.0103 22.9641C42.3981 21.6154 42.0381 20.1374 41.9813 18.6012L43.4795 18.5508C43.4557 17.9085 43.4929 17.2533 43.5963 16.5917C43.6997 15.9302 43.8643 15.2954 44.0828 14.6918L42.6732 14.1761C43.1958 12.7326 43.9891 11.4392 44.9828 10.3475L46.0924 11.3605C46.9752 10.3907 48.0392 9.60446 49.2182 9.04925L48.5762 7.69078C49.9164 7.05963 51.3875 6.68702 52.9174 6.62584L52.9823 8.12548C53.6209 8.09994 54.2724 8.13698 54.9302 8.24225C55.5881 8.34752 56.219 8.51572 56.8187 8.73941L57.3379 7.33326C58.7745 7.86916 60.06 8.68291 61.1423 9.70172L60.1173 10.7934C61.0693 11.6897 61.8415 12.7698 62.3854 13.9679L63.7499 13.3508Z" fill="#CC6D51" stroke="white" stroke-width="3" stroke-dasharray="6 6"/>
</svg>
