<svg width="90" height="80" viewBox="0 0 90 80" fill="none" xmlns="http://www.w3.org/2000/svg">
<path d="M10.0206 63.7199C8.05443 61.9553 5.77241 59.6674 2.80645 56.6573C5.77241 53.6471 8.05443 51.3592 10.0206 49.5946C12.2701 47.5757 14.0075 46.334 15.7463 45.5271C21.6244 42.7992 28.3756 42.7993 34.2537 45.5271C35.9925 46.334 37.7299 47.5757 39.9794 49.5946C41.9456 51.3593 44.2276 53.6471 47.1935 56.6573C44.2276 59.6674 41.9456 61.9553 39.9794 63.7199C37.7299 65.7388 35.9925 66.9805 34.2537 67.7875C28.3756 70.5153 21.6244 70.5153 15.7463 67.7874C14.0075 66.9805 12.2701 65.7388 10.0206 63.7199Z" fill="white" stroke="white" stroke-width="4" stroke-linecap="round" stroke-linejoin="round"/>
<path d="M58.9794 8.11335C60.9456 9.87798 63.2276 12.1658 66.1936 15.176C63.2276 18.1862 60.9456 20.474 58.9794 22.2386C56.73 24.2575 54.9925 25.4993 53.2537 26.3062C47.3756 29.034 40.6244 29.034 34.7463 26.3062C33.0075 25.4993 31.2701 24.2575 29.0206 22.2386C27.0545 20.474 24.7724 18.1861 21.8065 15.176C24.7724 12.1658 27.0545 9.87798 29.0206 8.11334C31.2701 6.09447 33.0075 4.85272 34.7463 4.0458C40.6244 1.31798 47.3756 1.31798 53.2537 4.04581C54.9925 4.85272 56.73 6.09447 58.9794 8.11335Z" fill="white" stroke="white" stroke-width="4" stroke-linecap="round" stroke-linejoin="round"/>
<ellipse cx="49" cy="15.1761" rx="10" ry="10.1174" transform="rotate(-180 49 15.1761)" fill="#CC6D51"/>
<ellipse cx="19" cy="56.6574" rx="10" ry="10.1174" fill="#CC6D51"/>
<path d="M87.4928 48.2263C89.4331 42.7593 85.9406 33.3875 74.6867 33.3875C63.4329 33.3875 58 40.8069 58 48.2263C58 57.5981 66.8026 62.5641 71.1942 68.9225C74.6646 73.9473 75.4945 77.9039 80.1196 77.9039C86.0182 77.9039 86.458 71.9163 85.9406 68.9225" stroke="white" stroke-width="3" stroke-linecap="square"/>
<path d="M79.4999 48.0584C80.4999 40.9755 72.4999 40.359 68.4999 43.5056C63.9999 47.0458 66.4999 53.1164 72.5 58.1751C74.4385 59.8095 76.5 62.7279 76.5 64.7514" stroke="white" stroke-width="3" stroke-linecap="square"/>
<path d="M84.6284 53.6223C82.1284 54.6341 78.4284 57.6693 83.6284 61.7162" stroke="white" stroke-width="3" stroke-linecap="square"/>
</svg>
