<svg width="41" height="40" viewBox="0 0 41 40" fill="none" xmlns="http://www.w3.org/2000/svg">
<path d="M20.5 39.64C17.78 39.64 15.22 39.128 12.82 38.104C10.42 37.08 8.308 35.672 6.484 33.88C4.692 32.056 3.284 29.944 2.26 27.544C1.236 25.144 0.724004 22.584 0.724004 19.864C0.724004 17.112 1.236 14.552 2.26 12.184C3.284 9.784 4.692 7.688 6.484 5.896C8.308 4.072 10.42 2.648 12.82 1.624C15.22 0.599998 17.78 0.0879983 20.5 0.0879983C23.252 0.0879983 25.812 0.599998 28.18 1.624C30.58 2.648 32.676 4.072 34.468 5.896C36.292 7.688 37.716 9.784 38.74 12.184C39.764 14.552 40.276 17.112 40.276 19.864C40.276 22.584 39.764 25.144 38.74 27.544C37.716 29.944 36.292 32.056 34.468 33.88C32.676 35.672 30.58 37.08 28.18 38.104C25.812 39.128 23.252 39.64 20.5 39.64ZM20.5 36.952C22.868 36.952 25.076 36.52 27.124 35.656C29.204 34.76 31.028 33.528 32.596 31.96C34.164 30.392 35.38 28.584 36.244 26.536C37.14 24.456 37.588 22.232 37.588 19.864C37.588 17.496 37.14 15.288 36.244 13.24C35.38 11.16 34.164 9.336 32.596 7.768C31.028 6.2 29.204 4.984 27.124 4.12C25.076 3.224 22.868 2.776 20.5 2.776C18.132 2.776 15.908 3.224 13.828 4.12C11.78 4.984 9.972 6.2 8.404 7.768C6.836 9.336 5.604 11.16 4.708 13.24C3.844 15.288 3.412 17.496 3.412 19.864C3.412 22.232 3.844 24.456 4.708 26.536C5.604 28.584 6.836 30.392 8.404 31.96C9.972 33.528 11.78 34.76 13.828 35.656C15.908 36.52 18.132 36.952 20.5 36.952ZM20.5 11.752C19.22 11.752 18.58 11.128 18.58 9.88C18.58 8.632 19.22 8.008 20.5 8.008C21.012 8.008 21.444 8.168 21.796 8.488C22.18 8.776 22.372 9.24 22.372 9.88C22.372 10.52 22.18 11 21.796 11.32C21.444 11.608 21.012 11.752 20.5 11.752ZM18.916 29.416V13.96H22.084V29.416H18.916Z" fill="#162C29"/>
</svg>
