<svg width="192" height="104" viewBox="0 0 192 104" fill="none" xmlns="http://www.w3.org/2000/svg">
<path d="M191.062 51.5848C191.078 49.0693 189.866 46.7336 187.916 44.9368C185.478 42.601 185.497 39.5465 187.719 37.2107C190.186 34.8749 191.432 31.6407 190.716 28.5863C189.998 25.7114 187.566 22.4773 184.389 20.8602C181.699 19.6024 180.241 17.4463 180.501 15.1105C181.262 11.1577 177.612 6.66574 172.721 4.50963C168.075 2.35351 161.7 2.17384 157.275 3.9706C154.079 5.22833 150.159 4.68931 147.473 2.89254C145.031 1.27546 141.603 0.377075 138.17 0.377075C134.737 0.377075 131.543 1.27546 129.082 2.71287C125.883 4.50963 121.714 4.50963 118.783 2.71287C116.338 1.45513 113.401 0.556751 109.968 0.556751C106.535 0.556751 103.341 1.45513 100.88 2.89254C97.6809 4.68931 93.5121 4.68931 90.5807 2.89254C88.1375 1.45513 84.9552 0.556751 81.522 0.556751C78.0889 0.556751 74.8953 1.45513 72.434 2.89254C69.2348 4.68931 65.066 4.68931 62.1346 2.89254C59.6914 1.45513 56.5091 0.556751 53.0759 0.556751C49.1523 0.556751 45.7124 1.63481 43.0036 3.43157C40.5412 5.04866 36.8606 5.40801 33.9247 4.32995C29.5231 2.35351 22.6534 2.89254 18.2258 5.04866C13.5529 7.20477 9.84515 11.8764 10.8012 15.8292C11.2769 18.165 9.79202 20.3211 7.0855 21.7586C3.88741 23.3756 1.66117 26.4301 0.908534 29.1253C-0.0915826 32.1798 1.11419 35.4139 3.79697 37.7497C6.23566 39.9059 6.21531 43.14 3.74949 45.2961C1.53004 47.2726 0.289215 49.6084 0.273389 52.1238C0.257563 54.6393 1.46899 56.9751 3.41949 58.7719C5.85817 60.928 6.08418 63.9825 3.86359 66.1386C0.655318 69.3728 -0.354973 74.0443 1.33786 77.8175C2.55155 79.794 4.25795 81.4111 6.70342 82.4891C9.39298 83.7469 11.096 85.903 10.5908 88.2388C9.8303 92.1916 13.4793 96.8632 18.3702 99.0193C23.0159 101.175 29.3895 101.535 33.8149 99.738C37.0107 98.4803 40.9309 99.0193 43.8623 100.816C46.3055 102.254 49.4866 103.332 53.165 103.332C56.5982 103.332 59.7917 102.433 62.253 100.996C65.4523 99.199 69.6211 99.199 72.5525 100.996C74.9957 102.433 78.178 103.332 81.6111 103.332C85.0442 103.332 88.2378 102.433 90.6991 100.996C93.8983 99.199 98.0672 99.199 100.999 100.996C103.442 102.433 106.624 103.332 110.057 103.332C113.49 103.332 116.684 102.433 119.145 100.996C122.344 99.199 126.513 99.199 129.445 100.996C131.888 102.433 135.07 103.332 138.503 103.332C142.427 103.332 145.867 102.254 148.576 100.457C151.038 98.8397 154.719 98.4803 157.655 99.5584C162.303 101.355 169.172 100.816 173.599 98.8397C178.272 96.6836 181.979 92.012 181.268 88.0591C180.793 85.7233 182.279 83.3875 184.984 82.1298C187.198 81.0517 189.171 79.255 190.164 77.2785C192.151 73.3256 191.2 68.6541 188.031 65.5996C185.837 63.4434 186.102 60.3889 188.567 58.4125C189.805 56.4361 191.046 54.1003 191.062 51.5848Z" fill="#356AD2"/>
</svg>
