<svg width="252" height="114" viewBox="0 0 252 114" fill="none" xmlns="http://www.w3.org/2000/svg">
<path d="M251.339 56.4252C251.339 53.6736 249.729 51.1186 247.153 49.1532C243.933 46.5981 243.933 43.2569 246.831 40.7019C250.051 38.1468 251.661 34.6091 250.695 31.2679C249.729 28.1232 246.509 24.5854 242.323 22.8166C238.781 21.4408 236.849 19.0823 237.171 16.5272C238.137 12.2033 233.308 7.28976 226.868 4.93126C220.75 2.57276 212.379 2.37622 206.583 4.34163C202.398 5.71743 197.246 5.1278 193.704 3.16238C190.484 1.39351 185.976 0.410797 181.469 0.410797C176.961 0.410797 172.775 1.39351 169.555 2.96584C165.37 4.93126 159.896 4.93126 156.032 2.96584C152.812 1.59005 148.949 0.607339 144.441 0.607339C139.933 0.607339 135.748 1.59005 132.528 3.16238C128.342 5.1278 122.868 5.1278 119.005 3.16238C115.785 1.59005 111.599 0.607339 107.091 0.607339C102.584 0.607339 98.3977 1.59005 95.1779 3.16238C90.9922 5.1278 85.5185 5.1278 81.6548 3.16238C78.435 1.59005 74.2492 0.607339 69.7415 0.607339C64.5898 0.607339 60.0821 1.78659 56.5403 3.75201C53.3205 5.52088 48.4908 5.91397 44.627 4.73472C38.8313 2.57276 29.8159 3.16238 24.0202 5.52088C17.9026 7.87939 13.0729 12.9895 14.3608 17.3134C15.0048 19.8684 13.0729 22.2269 9.53109 23.7993C5.34535 25.5681 2.44752 28.9094 1.48158 31.8575C0.193655 35.1987 1.80356 38.7365 5.34534 41.2915C8.56515 43.65 8.56515 47.1877 5.34534 49.5462C2.44752 51.7082 0.837616 54.2633 0.837616 57.0148C0.837616 59.7664 2.44752 62.3215 5.02336 64.2869C8.24317 66.6454 8.56515 69.9866 5.66733 72.3451C1.48158 75.8828 0.193655 80.9929 2.44752 85.1203C4.05742 87.2823 6.31129 89.0511 9.53109 90.2304C13.0729 91.6062 15.3267 93.9647 14.6828 96.5197C13.7168 100.844 18.5466 105.954 24.9862 108.312C31.1038 110.671 39.4753 111.064 45.2709 109.098C49.4567 107.723 54.6084 108.312 58.4722 110.278C61.692 111.85 65.8777 113.029 70.7074 113.029C75.2151 113.029 79.4009 112.047 82.6207 110.474C86.8064 108.509 92.2801 108.509 96.1439 110.474C99.3637 112.047 103.549 113.029 108.057 113.029C112.565 113.029 116.751 112.047 119.97 110.474C124.156 108.509 129.63 108.509 133.494 110.474C136.713 112.047 140.899 113.029 145.407 113.029C149.915 113.029 154.1 112.047 157.32 110.474C161.506 108.509 166.98 108.509 170.843 110.474C174.063 112.047 178.249 113.029 182.757 113.029C187.908 113.029 192.416 111.85 195.958 109.885C199.178 108.116 204.007 107.723 207.871 108.902C213.989 110.867 223.004 110.278 228.8 108.116C234.918 105.757 239.747 100.647 238.781 96.3232C238.137 93.7681 240.069 91.2131 243.611 89.8373C246.509 88.6581 249.085 86.6926 250.373 84.5307C252.948 80.2068 251.661 75.0967 247.475 71.7555C244.577 69.397 244.899 66.0558 248.119 63.8938C249.729 61.7318 251.339 59.1768 251.339 56.4252Z" fill="#F8F7F2"/>
</svg>
