<svg width="164" height="104" viewBox="0 0 164 104" fill="none" xmlns="http://www.w3.org/2000/svg">
<path d="M163.518 51.8853C163.534 49.3699 162.5 47.0341 160.834 45.2373C158.752 42.9015 158.771 39.847 160.673 37.5112C162.785 35.1754 163.853 31.9413 163.244 28.8868C162.633 26.0119 160.556 22.7778 157.84 21.1607C155.542 19.9029 154.297 17.7468 154.521 15.411C155.175 11.4582 152.058 6.96625 147.878 4.81014C143.908 2.65402 138.457 2.47434 134.671 4.27111C131.937 5.52884 128.586 4.98981 126.291 3.19305C124.204 1.57596 121.274 0.677582 118.338 0.677582C115.403 0.677582 112.671 1.57596 110.565 3.01337C107.828 4.81014 104.263 4.81014 101.758 3.01337C99.6693 1.75564 97.1587 0.857258 94.2231 0.857258C91.2875 0.857258 88.5559 1.75564 86.45 3.19305C83.7127 4.98981 80.148 4.98981 77.6431 3.19305C75.5553 1.75564 72.835 0.857258 69.8994 0.857258C66.9637 0.857258 64.2321 1.75564 62.1262 3.19305C59.389 4.98981 55.8243 4.98981 53.3194 3.19305C51.2315 1.75564 48.5112 0.857258 45.5756 0.857258C42.2206 0.857258 39.2782 1.93532 36.9603 3.73208C34.8533 5.34916 31.7057 5.70852 29.1963 4.63046C25.4343 2.65402 19.5597 3.19305 15.7718 5.34916C11.7741 7.50528 8.59942 12.1769 9.4133 16.1297C9.81798 18.4655 8.54629 20.6216 6.23069 22.0591C3.49458 23.6761 1.58818 26.7306 0.942157 29.4258C0.0841905 32.4803 1.11228 35.7145 3.40415 38.0502C5.48745 40.2064 5.46711 43.4405 3.35667 45.5966C1.45705 47.5731 0.393914 49.9089 0.378088 52.4243C0.362262 54.9398 1.396 57.2756 3.0622 59.0724C5.14551 61.2285 5.33598 64.283 3.43522 66.4391C0.688941 69.6733 -0.1792 74.3448 1.26487 78.1181C2.30088 80.0945 3.75851 81.7116 5.8486 82.7896C8.14725 84.0474 9.6015 86.2035 9.16743 88.5393C8.5135 92.4921 11.6294 97.1637 15.8096 99.3198C19.7801 101.476 25.2297 101.835 29.0154 100.039C31.7492 98.7808 35.1008 99.3198 37.6058 101.117C39.6936 102.554 42.4128 103.632 45.5581 103.632C48.4937 103.632 51.2253 102.734 53.3312 101.296C56.0684 99.4995 59.6331 99.4995 62.1381 101.296C64.2259 102.734 66.9462 103.632 69.8818 103.632C72.8174 103.632 75.549 102.734 77.6549 101.296C80.3922 99.4995 83.9569 99.4995 86.4618 101.296C88.5496 102.734 91.2699 103.632 94.2056 103.632C97.1412 103.632 99.8728 102.734 101.979 101.296C104.716 99.4995 108.281 99.4995 110.786 101.296C112.873 102.734 115.594 103.632 118.529 103.632C121.884 103.632 124.827 102.554 127.145 100.757C129.252 99.1402 132.399 98.7808 134.909 99.8589C138.881 101.656 144.756 101.117 148.543 99.1402C152.54 96.9841 155.715 92.3125 155.111 88.3596C154.706 86.0238 155.979 83.688 158.294 82.4303C160.188 81.3522 161.876 79.5555 162.728 77.579C164.43 73.6261 163.621 68.9546 160.914 65.9001C159.04 63.7439 159.269 60.6895 161.378 58.713C162.439 56.7366 163.502 54.4008 163.518 51.8853Z" fill="#F8F7F2"/>
</svg>
