<svg width="49" height="49" viewBox="0 0 49 49" fill="none" xmlns="http://www.w3.org/2000/svg">
<path d="M49 23.275L33.32 21.805C32.585 21.805 32.095 20.825 32.585 20.09L42.63 8.085L40.915 6.37L28.91 16.415C28.175 16.905 27.44 16.415 27.195 15.68L25.725 0H23.275L21.805 15.435C21.805 16.17 20.825 16.66 20.09 16.17L8.085 6.37L6.37 8.085L16.17 20.09C16.66 20.825 16.17 21.56 15.435 21.805L0 23.275V25.725L15.68 27.195C16.415 27.195 16.905 28.175 16.415 28.91L6.615 40.915L8.33 42.63L20.335 32.585C21.07 32.095 21.805 32.585 22.05 33.32L23.275 49H25.725L27.195 33.32C27.195 32.585 28.175 32.095 28.91 32.585L40.915 42.63L42.63 40.915L32.585 28.91C32.095 28.175 32.585 27.44 33.32 27.195L49 25.725V23.275Z" fill="#FF9500"/>
</svg>
