<svg width="156" height="78" viewBox="0 0 156 78" fill="none" xmlns="http://www.w3.org/2000/svg">
<path d="M27.1726 48.614C26.2358 47.6804 25.3525 46.9022 24.4712 46.2791C23.59 45.6561 22.452 45.0324 21.1585 44.3048C20.4861 43.9409 19.659 43.525 18.6258 43.0568C17.5925 42.5885 16.7661 42.2243 16.1457 41.9123C15.5254 41.6003 14.9043 41.2366 14.2826 40.8212C13.6095 40.4056 13.1418 39.9905 12.8795 39.576C12.5659 39.1613 12.4049 38.6435 12.398 38.1261C12.387 37.2983 12.6868 36.6783 13.3474 36.1626C14.008 35.6469 14.8269 35.442 15.9052 35.4447C17.5998 35.449 19.1479 36.022 20.4476 37.2152C21.0187 37.6822 21.8007 38.5637 22.7936 39.8596C23.7866 41.1555 24.6172 41.8302 25.3361 41.832C25.8496 41.8333 26.2576 41.6274 26.6636 41.2662C27.0182 40.905 27.2174 40.4398 27.2104 39.9225C27.2098 39.8707 27.2084 39.7673 27.2077 39.7155L26.5113 33.7124C26.4509 33.0397 26.2379 32.47 25.9243 32.0553C25.6099 31.5889 25.145 31.3808 24.5288 31.3793C24.118 31.3782 23.6579 31.5323 23.0972 31.8413C22.5365 32.1503 22.0764 32.3043 21.7683 32.3036C21.6143 32.3032 20.8933 32.1462 19.5027 31.8322C18.1634 31.5184 16.7749 31.3597 15.3884 31.3562C11.7939 31.3472 8.93005 32.2195 6.90024 34.0251C4.87043 35.8308 3.87316 38.0529 3.90843 40.6916C3.92295 41.7781 4.14149 42.7616 4.51339 43.6938C4.93595 44.5744 5.35713 45.3515 5.93028 45.9737C6.45209 46.5959 7.17929 47.2185 8.1119 47.8417C9.0445 48.4649 9.87234 48.9326 10.5961 49.2966C11.3198 49.6606 12.2504 50.1285 13.4383 50.6489C14.6263 51.1692 15.5055 51.6371 16.0738 51.8972C17.8315 52.7811 19.1797 53.7675 20.1179 54.8046C21.056 55.8417 21.5868 57.1364 21.6069 58.6368C21.6324 60.5511 20.9343 62.1014 19.5124 63.2878C18.0905 64.4741 16.0961 65.0899 13.5799 65.0836C11.3205 65.0779 9.51703 64.6077 8.11743 63.6212C6.71783 62.6347 6.03368 61.3913 6.01224 59.7875C6.00048 58.9079 6.19689 58.2359 6.60078 57.7195C7.00467 57.2032 7.56675 56.9976 8.28566 56.9994C8.33701 56.9996 8.38836 56.9997 8.43971 56.9998C8.90186 57.001 9.31543 57.209 9.57772 57.6235C9.89135 58.0382 10.205 58.4529 10.57 58.8677C10.935 59.2825 11.5026 59.4909 12.2215 59.4927C13.1971 59.4951 13.9626 59.1349 14.6725 58.4641C15.3824 57.7934 15.6794 56.9663 15.6663 55.9833C15.6497 54.7416 15.0703 53.6537 13.9302 52.8748C12.7895 52.0441 11.2948 51.6265 9.49749 51.6219C6.98132 51.6156 4.88633 52.3864 3.21252 53.9342C1.53939 55.5338 0.693407 57.5494 0.726603 60.0328C0.76464 62.8784 1.97613 65.1579 4.31041 66.9228C6.64469 68.6877 9.84017 69.5752 13.8455 69.5853C18.8265 69.5978 22.7632 68.3144 25.7062 65.6832C28.65 63.1038 30.0949 59.7964 30.0409 55.7608C30.0209 54.2604 29.7462 52.9146 29.2674 51.6717C28.7914 50.6358 28.1093 49.5476 27.1726 48.614Z" fill="#162C29"/>
<path d="M58.0265 57.7695C57.7168 57.6137 57.4057 57.3546 57.0931 56.9922C56.7806 56.6297 56.6712 56.1128 56.6622 55.4411L56.4791 41.7494C56.4625 40.5094 55.7356 39.8359 54.2998 39.8323C53.8896 39.8312 53.5826 39.8821 53.2763 39.9847L47.7007 41.0039C46.4734 41.2591 45.8144 41.8258 45.8275 42.8075C45.8358 43.4275 46.0998 43.9965 46.6701 44.4629L47.2931 45.0328C47.8128 45.5507 48.1363 46.7399 48.1605 48.5482L48.2579 55.8332C48.2669 56.5049 47.9156 57.0723 47.2053 57.6389C46.4943 58.1537 45.6773 58.41 44.7542 58.4076C42.6005 58.4022 41.5043 56.9528 41.4656 54.0595L41.3005 41.7111C41.2839 40.4711 40.6083 39.7977 39.2238 39.7942C38.7622 39.793 38.3527 39.8437 38.0977 39.9464L32.5734 40.9657C31.2949 41.2208 30.6358 41.7875 30.649 42.7691C30.6566 43.3375 30.9206 43.9065 31.4915 44.4246L32.1145 44.9944C32.6342 45.5124 32.9578 46.7015 32.9819 48.5099L33.0642 54.6582C33.1022 57.4999 33.8491 59.6717 35.3036 61.0704C36.758 62.469 38.7163 63.1973 41.229 63.2036C44.6647 63.2123 47.212 61.9787 48.8711 59.503L49.0762 59.5035L49.0942 60.8469C49.1149 62.3969 49.9457 63.1739 51.6379 63.1782C52.4071 63.1802 53.3281 63.0275 54.5539 62.6689C55.7292 62.3619 56.7492 61.9512 57.5635 61.4882C58.8372 60.8715 59.4941 60.1498 59.4831 59.3231C59.4775 58.9098 59.3189 58.5478 59.059 58.2888C58.6467 58.1327 58.3363 57.9253 58.0265 57.7695Z" fill="#162C29"/>
<path d="M77.103 39.8243C73.715 39.8158 71.2682 41.1026 69.8148 43.7368L69.6608 43.7364L69.6345 41.7709C69.6172 40.4778 68.8895 39.8035 67.5035 39.8C67.3495 39.7996 67.0422 39.8506 66.5302 39.9527L61.2573 41.0255C60.694 41.1275 60.2348 41.3332 59.8796 41.6427C59.5244 41.9521 59.3759 42.3655 59.3822 42.831C59.3891 43.3483 59.6541 43.9696 60.175 44.5399L60.6974 45.2136C61.271 45.8875 61.5943 47.0262 61.6157 48.6297L61.8255 64.3022C61.8477 65.9574 61.6062 67.0947 61.0492 67.6622L60.4928 68.2815C59.9891 69.0043 59.7401 69.5726 59.7456 69.9864C59.7615 71.1761 60.4365 71.7467 61.8225 71.7503L70.4981 71.7723C71.8841 71.7758 72.5944 71.1569 72.5785 69.9672C72.5716 69.45 72.3073 68.8804 71.735 68.31L71.162 67.6879C70.5377 67.0656 70.2665 65.9787 70.2437 64.2718L70.2194 62.4615C71.663 62.9306 73.1039 63.1929 74.6439 63.1968C78.2886 63.206 81.1995 62.0755 83.3257 59.8568C85.452 57.6382 86.5412 54.641 86.4907 50.8651C86.4457 47.503 85.5883 44.8113 83.868 42.8414C82.1983 40.82 79.9264 39.8315 77.103 39.8243ZM73.6707 59.522C72.5927 59.5193 71.7665 59.1551 71.1415 58.4811C70.5165 57.8072 70.196 56.8753 70.1801 55.6857L70.0845 48.5477C70.0686 47.358 70.3635 46.376 71.0204 45.6019C71.6774 44.8277 72.5452 44.4678 73.6233 44.4706C76.2926 44.4773 77.7126 47.0154 77.7798 52.0326C77.7949 56.9981 76.4428 59.529 73.6707 59.522Z" fill="#162C29"/>
<path d="M112.061 42.8416C110.341 40.8717 108.068 39.8315 105.245 39.8243C101.857 39.8158 99.4098 41.1026 97.9564 43.7368L97.8024 43.7364L97.7761 41.7709C97.7588 40.4778 97.0311 39.8035 95.6451 39.8C95.4911 39.7996 95.1838 39.8506 94.6718 39.9527L89.3989 41.0255C88.8356 41.1275 88.3764 41.3332 88.0212 41.6427C87.666 41.9521 87.5175 42.3655 87.5238 42.831C87.5307 43.3483 87.7957 43.9696 88.3166 44.5399L88.839 45.2136C89.4126 45.8875 89.7359 47.0262 89.7573 48.6297L89.9671 64.3022C89.9893 65.9574 89.7478 67.0947 89.1908 67.6622L88.6344 68.2815C88.1307 69.0043 87.8817 69.5726 87.8872 69.9864C87.9031 71.1761 88.5781 71.7467 89.9641 71.7503L98.6396 71.7723C100.026 71.7758 100.736 71.1569 100.72 69.9672C100.713 69.45 100.449 68.8804 99.8766 68.31L99.3036 67.6879C98.6793 67.0656 98.4081 65.9787 98.3853 64.2718L98.361 62.4615C99.8046 62.9306 101.245 63.1929 102.785 63.1968C106.43 63.206 109.341 62.0755 111.467 59.8568C113.594 57.6382 114.683 54.641 114.632 50.8651C114.587 47.503 113.73 44.8113 112.061 42.8416ZM101.812 59.522C100.734 59.5193 99.9081 59.1551 99.2831 58.4811C98.6581 57.8072 98.3376 56.8753 98.3217 55.6857L98.2261 48.5477C98.2102 47.358 98.5051 46.376 99.162 45.6019C99.819 44.8277 100.687 44.4678 101.765 44.4706C104.434 44.4773 105.854 47.0154 105.921 52.0326C105.936 56.9981 104.584 59.529 101.812 59.522Z" fill="#162C29"/>
<path d="M117.508 58.6125L116.95 59.233C116.442 59.7501 116.192 60.3195 116.199 60.8895C116.215 62.0813 116.892 62.7045 118.282 62.7076L126.982 62.7265C128.372 62.7295 129.033 62.1092 129.017 60.8656C129.01 60.3474 128.746 59.7769 128.224 59.2576L127.65 58.6346C127.024 58.0114 126.752 56.9227 126.73 55.2127L126.418 31.2734C126.409 30.5998 126.197 30.133 125.832 29.7695C125.467 29.4578 125.001 29.2495 124.435 29.2483C123.972 29.2473 123.509 29.2981 122.944 29.4005L117.602 30.3216C116.421 30.5263 115.811 31.1467 115.825 32.183C115.831 32.7012 116.096 33.2718 116.619 33.8947L117.143 34.5694C117.666 35.2442 117.99 36.3848 118.012 38.0429L118.235 55.1424C118.309 56.8525 118.066 57.9919 117.508 58.6125Z" fill="#162C29"/>
<path d="M154.856 40.7746C154.493 40.4636 153.978 40.3073 153.311 40.3056L148.849 40.2943C148.336 40.293 147.928 40.447 147.573 40.7561C147.218 41.0653 147.07 41.4783 147.077 41.9951C147.082 42.4085 147.293 42.8741 147.763 43.4438C148.18 43.9616 148.444 44.5307 148.451 45.0474C148.458 45.6159 148.315 46.3907 148.02 47.3718L144.764 56.9752C144.764 56.9752 143.862 54.7508 142.848 51.7511C141.619 48.079 140.97 45.5452 140.966 45.2352C140.959 44.7701 141.158 44.2538 141.611 43.6349C142.064 43.0159 142.262 42.4996 142.256 42.0345C142.249 41.5178 142.039 41.1038 141.675 40.7929C141.261 40.4818 140.797 40.3255 140.131 40.3239L131.206 40.3012C130.54 40.2995 130.029 40.4533 129.623 40.814C129.218 41.1747 129.07 41.5877 129.076 42.0528C129.084 42.6729 129.4 43.2422 129.972 43.8637L130.752 44.6925C131.376 45.3142 132.003 46.1943 132.532 47.3842C132.532 47.3842 135.322 56.5895 136.488 59.383C137.812 62.4869 139.812 62.5436 140.944 62.8049C142.076 63.0661 141.528 64.2533 140.976 65.182C138.066 69.9805 134.097 72.3475 129.122 72.3349C127.737 72.3314 126.504 72.1215 125.422 71.7571C124.391 71.3927 123.513 70.9254 122.891 70.4071C122.268 69.8888 121.697 69.3705 121.177 68.8525C120.658 68.3344 120.087 67.8679 119.518 67.5047C118.898 67.1414 118.28 66.9331 117.562 66.9313C116.331 66.9282 115.311 67.339 114.501 68.1638C113.692 68.9885 113.295 70.021 113.311 71.2096C113.333 72.8633 114.276 74.3126 116.189 75.506C118.051 76.6993 120.932 77.3267 124.727 77.3363C130.061 77.3498 134.658 75.9662 138.418 73.2886C142.228 70.5595 145.098 66.5877 147.079 61.3218L152.225 47.3307C152.719 45.9368 153.322 44.9564 153.93 44.3896L154.639 43.7196C155.195 43.1525 155.495 42.5849 155.487 41.9647C155.43 41.4995 155.27 41.0857 154.856 40.7746Z" fill="#162C29"/>
<path d="M41.3127 36.7638C41.9788 36.7654 42.4892 36.6118 42.895 36.3032C43.3008 35.9945 43.449 35.5819 43.4422 35.0658C43.4353 34.5497 43.1702 33.8781 42.5963 33.1026L42.0237 32.4302C41.2954 31.6027 40.921 30.4147 40.9018 28.9696L40.6208 7.80842C40.6208 7.80842 44.9455 9.36725 51.0581 10.5175C50.416 12.3223 50.0841 14.3344 50.1108 16.3473L50.2835 29.3536C50.3048 30.9536 50.0636 32.0885 49.5089 32.7581L48.9535 33.376C48.4479 33.8909 48.1993 34.458 48.2068 35.0258C48.2226 36.2129 48.8969 36.8338 50.2292 36.8371L58.6326 36.8575C60.016 36.8608 60.6739 36.2431 60.6575 35.0044C60.6493 34.385 60.4368 33.8168 60.0214 33.4029L59.5533 32.8857C58.9808 32.2133 58.659 31.1287 58.6384 29.5803L58.5356 21.8385C58.5246 21.0127 58.8737 20.2909 59.5822 19.6217C60.2906 18.9525 61.1569 18.5933 62.0792 18.5956C64.1801 18.6007 65.2753 20.0484 65.3137 22.9387L65.4014 29.5451C65.422 31.0935 65.1289 32.1766 64.5742 32.8462L64.1199 33.3612C63.7161 33.8248 63.518 34.3404 63.5263 34.9597C63.5427 36.1984 64.217 36.8194 65.6005 36.8228L74.1576 36.8435C75.5411 36.8469 76.2503 36.2293 76.2338 34.9906C76.2269 34.4744 75.9632 33.9061 75.3927 33.3886L74.8208 32.7679C74.2497 32.1988 73.9271 31.0625 73.9045 29.3593L73.8182 22.8562C73.7798 19.9658 73.0842 17.7449 71.7321 16.2449C70.3799 14.7449 68.4225 13.966 65.8605 13.9598C62.6836 13.9521 60.2392 15.0816 58.5784 17.3484L58.5469 14.9742C58.5311 13.7871 58.6185 12.6519 58.7579 11.5684C60.3484 11.7271 61.9887 11.7827 63.6284 11.7867C69.7772 11.8016 71.5206 8.03825 71.4939 6.02536C71.4603 3.49635 69.2691 0.549208 64.76 0.538264C60.5071 0.527942 56.5323 2.16984 53.911 5.41497C53.6589 5.72402 53.458 6.0332 53.2053 6.29064C47.2893 4.52151 40.5959 2.07956 36.0198 0.881399C30.5691 -0.576935 14.6703 -1.69935 14.8444 11.4102C14.8766 13.836 15.6187 15.6958 17.0206 17.0927C18.4739 18.4897 20.3274 19.1652 22.6845 19.1709C24.6316 19.1756 26.1626 18.7148 27.3801 17.7888C28.5462 16.8626 29.1454 15.677 29.1262 14.2319C29.1131 13.2512 28.7954 12.4763 28.2236 11.8556C27.6517 11.2349 26.879 10.9233 25.9054 10.921C25.1368 10.9191 24.4236 11.227 23.765 11.7932C23.1064 12.3593 22.4956 12.6675 21.8807 12.666C21.2659 12.6645 20.6995 12.4567 20.2848 12.0944C19.8694 11.6805 19.6049 11.0605 19.594 10.2347C19.5755 8.84118 20.124 7.70707 21.3421 6.83264C22.509 5.95809 24.0407 5.54892 25.9878 5.55364C27.5251 5.55737 29.3731 5.81991 31.6345 6.34151L31.9361 29.051C31.9546 30.4446 31.611 31.5792 30.9572 32.5066L30.4025 33.1762C29.899 33.8459 29.5998 34.4645 29.6087 35.1355C29.6156 35.6516 29.826 36.065 30.1888 36.3755C30.6028 36.6862 31.0661 36.8422 31.7322 36.8438L41.3141 36.867L41.3127 36.7638ZM64.9583 3.89345C66.9566 3.8983 67.8899 4.72634 67.9064 5.96504C67.9228 7.20375 66.5558 8.43909 63.2252 8.431C62.2516 8.42864 61.071 8.27094 59.6841 8.00952C60.7266 5.48312 62.4987 3.88748 64.9583 3.89345Z" fill="#162C29"/>
<path d="M89.2795 37.3054C93.0252 37.3149 95.9874 36.2885 98.0641 34.2774C99.331 33.0915 99.9842 32.0592 99.9724 31.1802C99.9592 30.1979 99.5425 29.7315 98.6702 29.7293C98.2084 29.7281 97.6482 30.0369 96.8861 30.6037C95.4126 31.6856 93.8802 32.1987 92.2896 32.1947C88.5952 32.1853 86.4124 30.1117 85.7933 26.0257L96.8765 26.054C98.9802 26.0593 100.042 24.8729 100.011 22.5463C99.9768 20.0128 98.9741 17.9423 97.0542 16.3346C95.0829 14.7269 92.5575 13.8932 89.4276 13.8853C85.8358 13.8761 82.823 14.9542 80.5431 17.1198C78.2119 19.2853 77.0705 22.1776 77.1176 25.6934C77.1626 29.0541 78.2775 31.8488 80.461 33.9741C82.5945 36.2026 85.5338 37.2958 89.2795 37.3054ZM86.7212 18.6866C87.3758 17.7576 88.2418 17.2945 89.3707 17.2974C90.3456 17.2999 91.0681 17.6119 91.5895 18.2337C92.1109 18.8554 92.3779 19.6316 92.3903 20.5622C92.4097 22.0099 91.5984 22.7317 90.0078 22.7276L85.595 22.7164C85.7247 20.9072 86.1179 19.6156 86.7212 18.6866Z" fill="#162C29"/>
</svg>
