<svg width="156" height="78" viewBox="0 0 156 78" fill="none" xmlns="http://www.w3.org/2000/svg">
<path d="M104.185 39.0991C99.308 39.0991 97.5346 42.2023 97.2021 43.8093H96.5925V41.094C96.5925 39.5424 95.6505 39.0991 94.5975 39.0991C94.3204 39.0991 94.0433 39.1545 93.7663 39.2099L84.7332 40.9832V42.0361C84.7332 42.0361 87.4487 42.9227 87.4487 46.1367V67.0834C87.4487 69.8541 85.3982 71.184 85.3982 71.184V72.4586H99.1417V71.1286C99.1417 71.1286 97.0913 69.9649 97.0913 67.0834V48.0208C97.0913 46.1367 97.978 44.3081 100.084 44.3081C102.522 44.3081 103.686 46.7463 103.686 51.5119C103.686 56.0005 102.633 58.2725 100.25 58.882C99.6405 59.0483 99.0863 59.0483 98.6984 59.0483C98.4213 59.0483 98.3105 59.0483 98.3105 59.0483V59.9903C98.3105 59.9903 99.6405 63.2044 103.908 63.2044C109.837 63.2044 113.717 56.8871 113.717 50.3482C113.661 44.7514 110.724 39.0991 104.185 39.0991ZM95.7613 34.8322C104.296 34.8322 107.122 28.2933 107.122 28.2933L106.346 27.4621C106.346 27.4621 103.298 29.6233 99.1972 29.6233C95.0409 29.6233 92.8796 26.5755 92.8796 21.2003C92.8796 16.6563 93.9325 14.606 96.2046 14.606C97.8671 14.606 98.7538 15.8251 98.7538 17.4875C98.7538 21.4219 94.0433 21.4774 94.0433 21.4774V22.7519C94.0433 22.7519 96.648 24.2481 100.527 24.2481C104.794 24.2481 107.177 22.7519 107.177 19.1499C107.177 14.5506 102.134 10.8378 96.0938 10.8378C89.0004 10.8378 83.0707 15.3264 83.0707 23.029C83.1261 30.0666 87.892 34.8322 95.7613 34.8322ZM9.53179 37.1596C9.53179 36.3838 10.086 34.7214 12.8014 34.7214C15.6831 34.7214 18.1215 36.9934 20.1165 38.7112C21.5574 39.9303 22.6103 40.8724 22.6103 40.8724L23.8849 40.4845L23.3307 31.5628C23.2753 30.6761 22.4441 30.2328 21.7236 30.3991L18.7311 31.2303C18.7311 31.2303 15.9048 30.2328 12.1918 30.2328C8.5897 30.2328 5.65258 31.1749 3.38046 33.1144C1.16377 34.9985 0 37.4367 0 40.4845C0 51.6782 16.1265 50.4591 16.1265 55.5018C16.1265 57.1642 14.6856 58.2171 12.1918 58.2171C9.69805 58.2171 7.6476 56.5546 5.98508 54.9476C3.8238 52.8973 1.93961 51.124 1.93961 51.124L0.332504 51.7336L0.997513 60.877C1.05293 61.7636 1.82877 62.2069 2.60462 62.0407L5.26465 61.3757C5.26465 61.3757 8.47886 62.8165 12.6906 62.8165C19.2298 62.8165 25.7691 59.1591 25.7691 52.0107C25.7691 41.2603 9.53179 42.701 9.53179 37.1596ZM26.5449 9.34161C27.8195 7.34669 29.6483 7.34669 31.0892 7.34669H32.1975L32.1421 28.792C32.1421 31.5628 29.87 33.1698 29.87 33.1698V34.3889H44.8327V33.1698C44.8327 33.1698 42.5051 31.6736 42.5051 28.792V7.34669H43.6135C44.9989 7.34669 46.8831 7.34669 48.1577 9.34161C48.6011 10.062 51.2057 14.2181 51.2057 14.2181L53.4224 13.6085L52.3694 4.74222C52.2586 3.63393 51.3165 2.80271 50.2082 2.80271H24.4945C23.3861 2.80271 22.444 3.63393 22.3332 4.74222L21.2803 13.6085L23.497 14.2181C23.497 14.2181 26.1016 10.062 26.5449 9.34161ZM55.5837 7.34669V29.4016C55.5837 32.1723 53.3115 33.2806 53.3115 33.2806V34.3889H66.6117V33.2806C66.6117 33.2806 64.8384 32.7265 64.8384 29.8449V18.9837C64.8384 17.4321 66.6117 16.1022 67.9417 16.1022C70.2139 16.1022 71.3222 17.3767 71.3222 19.9812V29.8449C71.3222 32.6156 69.5489 33.2806 69.5489 33.2806V34.3889H83.0153V33.2806C83.0153 33.2806 80.6323 32.2277 80.6323 29.4016V20.0366C80.6323 14.3289 78.0277 10.8932 72.5414 10.8932C68.9392 10.8932 65.3925 12.8327 65.3925 15.6034H64.8384V4.07725V2.02691C64.8384 0.364483 63.73 -0.245075 61.9567 0.0874113L53.3115 1.80526L53.2561 2.80271C53.2561 2.80271 55.5837 4.13266 55.5837 7.34669ZM116.764 35.608V57.3304C116.764 60.1012 114.492 61.2094 114.492 61.2094L114.437 62.6502H128.679V61.0986C128.679 61.0986 126.352 60.212 126.352 57.3304V32.2832V30.2328C126.352 28.5704 125.188 27.9608 123.47 28.2933L114.437 30.0666V31.1195C114.437 31.1195 116.764 32.4494 116.764 35.608ZM53.5332 55.7234V41.1494C53.5332 39.5978 52.5911 39.0991 51.5382 39.0991C51.2611 39.0991 50.984 39.1545 50.7069 39.2099L41.286 41.094V42.2023C41.286 42.2023 43.946 43.0889 43.946 46.303V55.668C43.946 56.8317 42.3389 57.7183 40.898 57.7183C39.0139 57.7183 38.0718 56.4438 38.0718 53.8393V41.094C38.0718 39.5424 37.1297 39.0437 36.0767 39.0437C35.7996 39.0437 35.5226 39.0991 35.2455 39.1545L25.7691 41.0386V42.1469C25.7691 42.1469 28.4845 43.0335 28.4845 46.2476V54.3935C28.4845 59.8795 31.3663 63.0381 36.7972 63.0381C40.5655 63.0381 44.1677 61.0432 44.1677 57.8846H44.7773V60.6553C44.7773 62.2623 45.7194 63.0381 47.5481 63.0381C52.2032 63.0381 56.3041 59.6578 56.3041 59.6578V58.7158C56.3041 58.7158 53.5332 58.6604 53.5332 55.7234ZM75.2568 39.0991C70.3801 39.0991 68.6068 42.2023 68.2742 43.8093H67.6647V41.094C67.6647 39.5424 66.7226 39.0991 65.6696 39.0991C65.3925 39.0991 65.1155 39.1545 64.8384 39.2099L55.8053 40.9832V42.0361C55.8053 42.0361 58.5208 42.9227 58.5208 46.1367V67.0834C58.5208 69.8541 56.4703 71.184 56.4703 71.184V72.4586H70.2139V71.1286C70.2139 71.1286 68.1634 69.9649 68.1634 67.0834V48.0208C68.1634 46.1367 69.0501 44.3081 71.1559 44.3081C73.5943 44.3081 74.7581 46.7463 74.7581 51.5119C74.7581 56.0005 73.7051 58.2725 71.3222 58.882C70.7126 59.0483 70.1584 59.0483 69.7705 59.0483C69.4934 59.0483 69.3826 59.0483 69.3826 59.0483V59.9903C69.3826 59.9903 70.7126 63.2044 74.9798 63.2044C80.9094 63.2044 84.7886 56.8871 84.7886 50.3482C84.7332 44.7514 81.7961 39.0991 75.2568 39.0991ZM147.022 39.487V40.4845C147.022 40.4845 148.519 41.8144 148.519 43.9202C148.519 44.6406 148.352 45.4164 148.02 46.3584L144.861 55.2801L141.425 45.4164C141.204 44.8622 141.148 44.3081 141.148 43.8093C141.148 41.7036 142.755 40.4291 142.755 40.4291V39.4316H128.18V40.4291C128.18 40.4291 129.843 42.0915 131.173 45.0285C133.168 49.517 134.221 55.1693 136.382 59.9903C137.269 61.9852 138.377 63.0935 141.481 63.0935C141.481 63.4814 137.435 72.791 128.125 72.791C120.2 72.791 120.865 67.1942 115.601 67.1942C113.218 67.1942 111.5 69.2999 111.5 71.6273C111.5 76.393 117.319 78 123.47 78C136.548 78 142.811 70.907 147.189 60.5445C149.516 55.1139 151.677 49.2954 153.728 44.1418C154.781 41.4819 156 40.4291 156 40.4291V39.4316H147.022V39.487Z" fill="#162C29"/>
</svg>
