<svg width="518" height="195" viewBox="0 0 518 195" fill="none" xmlns="http://www.w3.org/2000/svg">
<path d="M259 193.5C187.517 193.5 122.957 187.982 76.3151 173.109C29.6186 158.218 1.49999 134.192 1.5 97.5C1.5 60.8078 29.6186 36.7817 76.3151 21.8913C122.957 7.01828 187.517 1.49999 259 1.49999C330.498 1.49999 395.056 6.25052 441.696 20.74C465.01 27.9832 483.727 37.6242 496.598 50.2151C509.427 62.7653 516.5 78.2913 516.5 97.5C516.5 116.709 509.427 132.235 496.598 144.785C483.727 157.376 465.01 167.017 441.696 174.26C395.055 188.749 330.498 193.5 259 193.5Z" stroke="black" stroke-width="3" stroke-linejoin="round"/>
</svg>
