<svg width="49" height="51" viewBox="0 0 49 51" fill="none" xmlns="http://www.w3.org/2000/svg">
<path d="M49 23.8998L33.32 22.3904C32.585 22.3904 32.095 21.3841 32.585 20.6293L42.63 8.30205L40.915 6.54101L28.91 16.8557C28.175 17.3588 27.44 16.8557 27.195 16.1009L25.725 0H23.275L21.805 15.8494C21.805 16.6041 20.825 17.1072 20.09 16.6041L8.085 6.54101L6.37 8.30205L16.17 20.6293C16.66 21.3841 16.17 22.1388 15.435 22.3904L0 23.8998V26.4156L15.68 27.9251C16.415 27.9251 16.905 28.9314 16.415 29.6861L6.615 42.0134L8.33 43.7744L20.335 33.4598C21.07 32.9566 21.805 33.4598 22.05 34.2145L23.275 50.3154H25.725L27.195 34.2145C27.195 33.4598 28.175 32.9566 28.91 33.4598L40.915 43.7744L42.63 42.0134L32.585 29.6861C32.095 28.9314 32.585 28.1766 33.32 27.9251L49 26.4156V23.8998Z" fill="#FF9500"/>
</svg>
