<svg width="42" height="42" viewBox="0 0 42 42" fill="none" xmlns="http://www.w3.org/2000/svg">
<path d="M38.7808 15.9682C34.7059 12.6946 31.1448 15.559 26.5612 17.4004C24.9664 18.0142 23.3305 16.3774 23.9028 14.7406C25.252 11.6716 26.8094 9.01175 26.7607 6.35193C26.6859 2.25989 24.641 0.213867 20.626 0.213867C16.611 0.213867 14.6409 2.25989 14.7157 6.35193C14.7644 9.01175 16.419 11.6716 17.6796 14.7406C18.3118 16.3774 16.7357 18.0142 15.1185 17.4004C10.4676 15.559 7.00244 12.6946 3.04728 15.9682C1.66448 17.1958 0.891401 18.8326 0.925065 20.6741C0.999874 24.7661 3.04478 26.8121 7.05978 26.8121C9.66953 26.8121 12.2494 25.1753 15.2382 23.9477C16.8329 23.3339 18.4689 24.9707 17.8965 26.6075C16.7481 29.6765 15.1908 32.3364 15.2394 34.9962C15.3142 39.0882 17.3591 41.1343 21.3741 41.1343C25.3891 41.1343 27.3592 39.0882 27.2844 34.9962C27.2358 32.3364 25.5811 29.6765 24.3205 26.6075C23.6884 24.9707 25.2644 23.3339 26.8817 23.9477C30.1161 25.1753 32.555 26.8121 35.1648 26.8121C39.1798 26.8121 41.1499 24.7661 41.0751 20.6741C41.0414 18.8326 40.2085 17.1958 38.7808 15.9682Z" fill="#BB9CFE"/>
</svg>
