<svg viewBox="0 0 492 475" fill="none" xmlns="http://www.w3.org/2000/svg">
<path d="M191.08 474.765C194.934 474.765 200.715 474.123 202.642 474.123C204.569 473.802 206.496 473.481 210.029 471.877C211.635 470.915 215.489 469.632 215.489 469.953C215.489 469.953 215.489 469.953 216.452 469.632C217.094 469.311 217.737 469.311 218.058 468.99C219.343 468.349 220.306 467.707 220.948 467.386C221.591 467.065 221.912 466.745 221.912 466.745C222.233 467.065 223.839 466.745 225.124 465.782C225.124 465.462 226.087 464.82 228.335 464.178C228.657 464.178 228.978 464.178 229.299 463.858H229.62C230.584 463.858 234.438 462.574 239.897 462.254C245.357 461.612 252.423 461.933 259.167 463.858C259.167 464.178 259.167 464.178 259.167 464.178C259.489 464.178 259.81 463.858 260.131 463.858C263.343 464.82 266.554 465.782 269.124 467.066C270.73 467.707 272.335 468.349 273.941 468.99C275.547 469.632 277.153 470.273 278.438 470.594C281.328 471.557 283.897 472.198 285.503 472.519C286.467 472.519 287.109 472.84 287.43 472.84C287.751 472.84 288.073 472.84 288.073 472.84C288.073 472.84 288.394 472.84 289.357 473.161C290.321 473.161 291.927 473.481 293.854 473.802C294.817 473.802 296.423 474.123 297.386 474.123C298.671 474.123 299.635 474.123 299.635 474.123C299.635 475.085 309.591 474.444 315.051 472.519C315.372 472.519 315.372 472.519 315.693 472.198C317.299 471.877 318.905 471.557 319.868 470.594C320.189 470.594 320.189 470.594 320.511 470.273C320.511 470.273 320.511 470.594 320.832 470.594C321.474 471.557 322.116 471.236 322.759 470.273C323.08 470.273 323.401 469.953 323.722 469.953C324.686 469.632 325.649 469.311 326.613 468.669C327.576 468.028 328.54 467.707 329.503 467.066C330.788 465.462 332.715 464.499 333.036 465.141C333.357 465.782 336.569 464.178 339.138 460.97C340.102 460.65 341.386 459.366 341.708 458.725C342.029 458.725 342.029 458.404 342.35 458.404C344.277 457.762 345.883 456.479 345.562 456.159C345.883 455.196 346.525 454.234 347.167 453.592C347.81 452.951 348.773 452.309 349.737 451.988C352.627 450.063 352.949 449.743 353.27 448.46C353.591 448.139 353.591 447.818 353.912 447.176C353.912 446.856 354.233 446.535 354.233 446.214C354.876 445.252 355.518 443.968 356.481 442.364C357.766 440.44 359.051 438.194 360.014 437.873C360.978 436.59 361.941 435.307 361.62 434.986C361.62 434.986 361.62 434.986 362.905 433.703C363.226 433.061 363.868 432.42 364.189 431.778C364.511 431.137 364.832 430.816 364.832 430.816C364.511 430.495 364.511 430.495 364.511 430.495C364.832 429.853 366.759 427.608 369.649 424.721C372.54 421.834 376.715 418.626 381.854 415.739C389.562 411.248 395.022 410.285 397.591 409.323C400.481 408.681 400.803 408.36 399.839 408.36C398.876 408.04 399.197 407.719 400.16 407.719C401.124 407.398 402.408 407.398 403.693 407.719C404.657 407.398 406.262 407.398 407.868 407.077C409.474 406.756 411.401 406.115 413.328 405.473C416.861 403.869 420.394 402.265 420.715 402.586C420.715 402.586 420.715 402.586 422.321 401.624C422.963 400.982 424.248 400.02 425.854 399.057C427.138 398.095 428.744 396.812 430.671 395.529C432.277 394.245 433.883 392.962 435.489 391.679C437.094 390.396 438.379 389.113 439.343 388.15C440.627 386.867 441.591 385.584 442.554 384.301C443.518 383.018 444.481 382.055 445.124 380.131C447.051 376.602 447.051 376.602 448.335 375.319C448.335 375.319 450.262 373.073 451.547 370.186C452.832 367.62 453.795 364.733 453.474 364.412C453.474 364.412 453.474 364.412 454.438 362.808C455.401 361.204 455.722 358.958 455.08 358.958C454.438 358.637 454.759 356.713 456.365 355.109C457.328 355.429 457.649 353.505 457.328 353.184C457.328 351.259 457.007 349.014 457.649 347.089C457.97 345.164 457.649 343.239 457.007 343.239C456.686 343.239 456.686 342.598 456.686 341.956C456.686 341.635 457.007 341.315 457.007 340.994C457.007 340.673 457.007 340.352 456.686 340.031C456.686 339.711 456.686 339.711 456.686 339.39C457.007 339.39 457.007 339.39 457.649 341.315C457.649 343.239 457.649 341.315 457.649 337.465C457.328 335.54 457.649 331.37 457.97 331.691C458.292 330.087 457.97 328.483 457.328 330.087C456.365 330.087 456.365 330.087 456.365 326.879C456.365 325.275 456.365 323.671 456.686 323.671C457.007 323.671 457.007 323.671 457.328 320.463C457.328 317.897 457.649 315.01 457.328 312.764C457.649 312.122 457.328 310.839 457.328 309.877C457.328 309.235 457.328 308.914 457.328 308.594C457.328 308.594 457.328 308.594 457.007 308.594C457.007 308.273 457.328 307.631 457.328 307.311L457.649 306.99C457.97 306.99 458.613 305.386 459.255 304.103C458.934 303.782 459.897 302.499 459.255 304.103C459.576 304.423 458.934 305.707 458.613 307.311C458.613 307.311 458.613 307.311 458.934 307.311C460.219 306.027 460.861 304.423 460.54 302.819C460.861 301.215 460.861 301.215 461.824 299.932C462.788 298.649 464.073 297.366 463.751 297.366C463.751 297.366 464.073 296.724 464.715 295.762C465.357 294.8 466 293.837 466.642 293.516C468.569 290.95 469.532 289.667 469.211 289.346C468.89 289.025 469.854 287.742 471.138 286.459C471.781 285.817 472.102 285.176 472.744 284.855C473.065 284.213 473.386 283.893 473.386 283.572C473.065 283.251 474.029 281.968 475.635 279.722C475.956 279.402 475.956 279.402 475.956 279.081L476.277 278.76C478.204 275.231 478.204 275.552 480.131 274.269C480.452 274.59 481.416 272.986 482.379 271.061C482.379 271.061 482.7 270.74 483.022 270.099C483.343 269.457 483.985 268.815 484.627 267.853C485.912 266.249 485.591 265.928 484.949 265.928C484.627 265.607 484.306 265.607 484.306 265.607C484.627 265.287 484.627 264.966 484.949 264.645C485.912 263.362 486.876 262.72 486.876 262.72C488.16 261.116 488.481 261.116 487.518 260.796C487.197 260.475 487.518 258.55 488.803 255.021C489.124 253.097 489.766 251.172 490.087 249.889C490.408 248.605 490.73 247.643 490.73 247.643C491.051 246.681 491.372 245.718 491.372 245.077C491.372 244.435 491.372 243.794 491.372 243.794C491.051 242.831 491.051 241.869 491.372 240.265C491.372 238.661 491.693 236.736 491.693 233.849C491.693 224.225 491.372 223.904 490.408 224.225C490.087 224.225 489.445 224.225 490.087 222.3C490.087 221.338 489.766 220.376 489.445 219.092C489.124 218.772 489.124 218.13 488.803 217.488C488.481 216.847 488.481 216.526 488.16 216.205C487.839 215.885 487.839 215.564 487.518 214.922C487.197 214.281 486.554 213.96 486.233 213.639C485.591 212.677 484.627 211.714 484.627 211.393C484.627 211.073 484.627 210.431 484.627 209.789V210.11C484.949 210.11 485.27 209.789 484.306 207.223C483.985 206.582 483.985 206.261 483.664 205.619C483.022 204.015 482.379 202.732 482.058 203.053C481.737 202.09 481.095 200.807 480.131 199.524C479.168 198.241 478.204 196.316 476.919 195.033C475.635 193.75 474.029 191.825 472.744 190.221C471.459 188.938 470.496 187.334 470.175 186.692C468.248 184.126 467.284 182.843 466.963 182.843C466.642 182.843 466.321 182.843 466.321 182.843C466.321 182.522 466.321 182.201 465.678 181.88C465.357 180.918 462.788 175.785 461.182 170.653C459.255 165.199 458.292 159.746 457.97 158.783C457.97 158.783 457.97 158.463 457.97 157.821C457.97 157.179 457.649 156.538 457.649 155.575C457.649 153.971 457.649 150.764 457.97 147.556C457.97 145.952 458.292 144.348 458.292 143.385C458.292 142.102 458.292 140.819 458.292 140.498C458.292 140.498 458.292 139.857 458.292 138.894C458.292 137.932 458.613 136.328 458.292 134.403C458.934 130.554 458.613 128.629 457.97 126.704C457.328 124.779 457.007 124.779 457.328 124.779C457.649 124.779 457.649 123.817 457.328 121.892C457.007 119.967 456.365 117.08 455.08 113.231C454.116 109.381 452.832 107.777 452.832 107.136C452.511 106.494 452.511 106.815 452.832 108.098C451.868 106.173 451.226 104.89 450.905 104.249C450.584 103.286 450.262 102.645 449.941 102.324C450.262 102.324 450.262 102.003 449.941 101.682C449.941 101.682 449.941 101.361 449.62 101.361C449.62 101.041 449.62 101.041 449.941 101.041C451.547 102.324 449.941 98.795 447.372 97.8327C446.408 97.1911 445.766 96.2287 445.124 95.5871C445.124 95.2663 445.124 95.2663 445.124 95.2663C445.124 95.2663 444.803 94.6247 444.481 93.9831C445.124 94.6247 445.766 95.2663 446.087 96.2287C446.087 96.2287 446.408 95.9079 446.73 95.9079C445.766 94.3039 445.766 94.3039 444.16 93.0208C444.16 93.0208 443.839 92.7 443.518 92.0584C443.197 91.7376 443.197 91.4168 442.876 91.4168C442.876 91.4168 442.876 91.4168 442.554 91.4168C442.233 91.096 441.591 90.4544 441.27 90.1336C439.664 88.8504 439.343 89.1712 440.306 91.096L439.985 90.7752C439.022 89.8128 438.7 88.5297 437.416 87.5673C437.416 87.5673 437.416 87.5673 437.094 87.5673C436.773 86.9257 437.416 87.2465 438.379 87.8881C439.664 89.1712 439.985 88.8504 440.306 88.8504C440.306 88.8504 438.7 86.9257 436.452 85.3217C434.525 84.0385 432.598 82.7554 431.314 82.1138C431.314 82.1138 430.992 81.793 430.671 81.793C430.671 81.793 430.671 81.793 430.671 81.4722C430.992 81.1514 427.781 78.5851 424.569 76.6603C422.963 75.6979 421.678 75.0563 420.715 74.4148C419.751 74.094 419.43 74.094 419.109 74.094C419.109 74.4148 418.788 74.4148 418.467 74.4148C417.182 73.7732 416.219 73.7732 415.255 73.7732C415.255 73.7732 414.934 73.7732 414.934 73.4524C414.934 73.1316 414.292 72.49 413.97 72.1692C413.007 71.5276 412.043 70.886 411.722 70.5652C411.722 70.886 411.401 70.886 411.08 70.886C410.116 70.2444 409.153 69.9236 407.868 69.2821C406.584 68.9613 405.299 68.6405 404.014 67.9989C403.372 67.6781 402.408 67.6781 401.766 67.3573C401.124 67.3573 400.16 67.0365 399.518 66.7157C396.306 66.0741 391.489 64.4702 390.204 63.5078C387.313 62.2246 385.708 61.583 385.386 61.9038C385.386 61.9038 385.386 61.9038 382.496 60.2999C381.211 59.0167 378.642 57.4127 378.321 57.7335C376.715 57.0919 375.751 55.8088 374.467 54.8464C372.54 51.9592 372.54 51.9592 372.861 54.2048C372.54 54.5256 373.824 55.8088 374.788 56.7711C374.467 56.4503 374.146 56.4503 373.824 56.1296C373.182 55.488 372.861 55.1672 372.54 54.5256C372.219 53.5632 371.255 52.28 370.292 51.3177C369.328 50.0345 368.365 49.3929 368.043 49.7137C367.08 48.4305 367.08 48.4305 366.116 46.8265C366.438 46.5058 365.474 45.2226 363.868 44.2602C363.868 44.2602 363.547 44.2602 363.547 43.9394C363.226 43.6186 363.226 43.2978 362.905 43.2978C362.584 42.977 362.262 42.6562 361.941 42.6562C361.62 42.0147 361.299 41.0523 361.299 40.0899C361.299 39.7691 361.299 39.7691 360.978 39.4483C360.335 37.8443 359.372 35.5988 358.408 33.9948C357.124 31.7493 355.839 30.4661 355.839 30.4661C355.518 30.7869 354.554 29.5037 353.27 28.2206C352.306 26.9374 351.021 25.3334 350.379 24.6918C349.737 23.7295 349.416 23.0879 348.773 22.4463C348.131 21.8047 347.167 21.1631 346.525 20.8423C346.846 20.5215 345.562 18.9176 343.956 17.9552C343.956 17.9552 342.35 16.672 343.635 18.276C343.635 18.276 342.671 17.9552 341.386 17.3136C340.744 16.672 340.423 16.0304 340.423 16.0304C340.423 16.3512 340.423 16.672 340.423 16.672C340.102 16.672 340.102 16.3512 339.781 16.3512C340.102 16.672 340.102 16.672 340.423 16.9928C340.423 17.3136 340.102 17.3136 339.781 16.9928C339.138 16.672 338.496 16.3512 337.854 15.7096C336.569 14.7472 334.642 13.1433 334.963 12.1809C334.642 12.5017 334.642 12.8225 334.321 12.8225C333.357 12.1809 332.715 11.2185 332.073 10.5769C331.751 10.2561 331.43 9.93535 331.109 9.61456C329.182 8.01059 329.182 8.01059 329.182 8.01059C328.861 8.33138 328.861 8.65218 328.861 8.65218C327.255 7.6898 325.328 7.36901 325.328 6.72742C325.649 6.40663 325.649 6.40662 323.722 5.76504C323.722 5.76504 321.795 5.12346 321.795 5.44425C321.474 6.40663 321.474 6.40663 319.868 5.44425C318.262 4.16108 316.335 3.51948 314.408 4.16107C314.087 5.12345 314.087 5.12346 312.481 3.84028C312.481 3.51949 310.876 2.55711 308.948 2.55711C308.948 2.55711 308.948 2.55711 308.948 2.8779C308.948 3.84028 307.022 3.51949 305.094 2.8779C305.094 2.55711 304.773 2.55711 303.81 2.55711C303.167 2.55711 302.525 2.55711 301.562 2.55711C299.956 2.23631 298.671 2.23631 297.065 2.55711C296.744 2.55711 296.423 2.8779 296.423 2.8779C294.496 2.8779 293.854 3.19869 293.532 2.8779C293.532 1.91552 293.532 1.91552 291.605 3.19869C289.678 3.84028 289.678 3.84028 285.824 4.48187C283.897 4.48187 283.897 4.48187 281.97 5.44425C281.97 5.76504 281.97 5.76504 281.97 6.08583H281.649C278.438 6.72742 275.226 7.6898 273.941 9.61456C273.299 9.93535 272.978 10.8977 273.299 11.8601C273.62 13.4641 274.905 15.068 276.189 14.7472C277.153 14.4265 280.365 13.4641 280.686 12.8225C281.328 11.5393 281.007 10.5769 284.219 10.5769C285.503 10.2561 287.109 10.2561 288.394 9.93535C289.678 9.93535 291.284 9.29376 292.569 9.29376C293.854 8.97297 294.817 8.01059 295.459 7.6898C296.102 7.6898 296.744 7.6898 297.065 8.01059C298.029 8.33138 298.35 8.33138 298.671 8.33138C299.635 8.97297 300.277 9.93535 301.883 10.2561C303.489 10.2561 302.204 8.97297 302.525 8.33138C303.81 8.33138 304.452 10.5769 305.737 9.93535C306.058 9.93535 306.379 8.65218 307.021 7.6898C307.343 7.6898 307.664 7.6898 307.985 7.6898C308.627 7.6898 308.948 7.6898 309.27 7.6898C309.591 8.33138 308.948 8.97297 310.554 9.61456C311.197 9.93535 312.481 10.2561 313.445 10.2561C314.73 10.2561 314.408 9.29376 314.73 8.97297C315.372 8.97297 316.014 9.29376 316.657 9.61456C316.657 10.2561 316.657 10.8977 317.62 11.5393C318.262 11.8601 319.226 12.5017 319.868 12.8225C320.511 13.1433 321.153 13.1433 321.474 12.5017C320.832 14.4265 322.759 14.7472 325.007 14.4265C324.365 15.7096 332.715 18.276 333.357 18.9176C330.146 16.9928 331.43 15.3888 334.321 17.9552C335.284 18.9176 336.248 19.5591 337.532 20.5215L340.744 23.0879C341.065 22.7671 340.744 22.1255 340.102 21.1631C340.423 21.1631 340.744 21.1631 340.744 21.1631L340.423 21.4839C340.102 21.8047 340.744 22.4463 342.35 23.4087C342.029 24.0502 341.065 23.7294 341.708 25.0126C343.635 28.2206 345.562 27.579 347.81 29.8245C349.737 32.0701 350.058 34.3156 350.379 36.2404C351.343 35.5988 353.27 36.882 354.554 37.8443C356.16 39.4483 354.233 39.4483 354.554 39.7691C354.554 40.0899 354.875 40.0899 355.197 40.4107C354.875 40.4107 354.554 40.7315 354.554 41.0523C354.875 42.3354 356.481 44.9018 357.124 45.8642C358.087 47.1473 360.014 49.3929 360.978 49.7137C361.62 50.0345 361.941 49.7137 362.905 50.9969C363.226 51.6385 363.547 52.6008 363.547 52.9216C363.226 53.5632 363.547 53.5632 364.511 54.5256C365.474 55.8088 367.08 56.1295 368.365 57.0919C369.649 58.0543 370.934 59.0167 372.219 60.2999C372.861 60.9414 373.503 62.5454 374.146 62.8662C374.467 63.187 374.467 62.2246 374.788 62.5454L376.073 63.187C378 64.4702 379.605 65.4325 381.532 66.7157C383.459 67.9989 387.313 70.2445 388.277 68.6405C387.956 69.2821 388.919 69.9237 390.204 70.5652C391.489 71.2068 392.773 71.8484 393.737 71.8484C395.343 72.1692 395.985 72.1692 396.948 72.1692C397.591 72.1692 398.233 72.1692 399.197 72.49C400.16 72.8108 399.197 73.4524 400.16 74.094C401.124 74.4148 402.087 74.7356 403.051 75.0563C404.335 75.3771 405.62 75.3771 406.905 75.3771C407.547 75.3771 407.547 75.0563 407.547 74.4148C407.547 75.6979 410.438 75.3771 411.722 76.0187C413.328 76.6603 410.438 78.5851 412.686 79.2267C414.613 79.8682 415.255 78.5851 415.897 77.6227C416.219 77.6227 416.54 77.9435 416.861 77.9435C417.503 78.2643 418.467 78.5851 419.109 78.9059C419.43 79.5474 419.43 79.8682 419.43 79.8682C420.073 79.5475 420.073 78.9059 421.357 79.8682C421.678 80.189 422.963 80.8306 423.284 80.8306H423.605C424.569 81.4722 425.211 82.1138 424.89 82.4346C424.89 82.4346 425.211 82.7554 425.854 83.397C426.496 84.0385 427.781 84.6801 429.065 85.9633L429.386 86.2841C429.386 86.9257 431.635 88.8504 432.277 88.8504L432.598 89.1712C433.562 90.1336 433.883 90.7752 433.883 91.096C434.525 91.7376 434.846 92.0584 434.846 92.0584C435.489 94.9455 437.737 93.9831 436.131 92.3792L435.168 92.0584C435.489 91.7376 436.131 92.0584 437.416 93.6623C437.737 94.6247 437.737 95.2663 438.058 96.5495C438.7 97.8326 439.985 99.7574 440.949 100.399C441.912 100.72 442.233 102.003 442.554 103.286C442.876 104.569 442.876 105.532 442.554 105.211C443.518 105.852 443.839 104.89 443.839 103.928C444.803 105.532 445.445 106.494 445.766 106.494C446.73 108.098 446.408 108.098 446.087 108.419C445.766 108.74 445.766 109.381 446.408 110.344C446.408 110.344 446.408 110.344 446.408 110.664C446.408 111.306 446.73 111.627 447.051 111.627C447.693 112.589 448.335 113.872 448.978 115.155C449.299 115.155 449.941 116.759 449.941 118.684C449.941 118.684 449.941 119.005 450.262 119.647C450.262 119.967 450.584 120.288 450.584 120.609C449.941 120.609 449.62 120.609 449.62 121.571C449.941 124.138 450.262 127.025 450.584 129.591C450.584 129.27 450.262 127.346 450.905 127.346C451.226 127.346 451.226 130.233 451.547 131.195C451.547 131.516 451.547 132.158 451.547 133.12C451.226 133.12 451.226 133.441 451.226 134.082C451.226 135.045 451.226 136.649 450.905 137.932C450.905 139.215 450.584 140.498 450.584 141.781C450.584 142.423 450.905 142.744 451.226 142.744C451.226 143.385 451.226 144.027 450.905 144.668C450.905 145.952 450.584 146.914 450.584 148.197C449.941 148.197 450.262 144.989 450.262 144.668C449.941 146.272 450.262 149.48 449.299 150.764C448.657 151.726 447.372 151.405 446.73 151.084C448.014 152.367 448.978 153.009 450.262 154.934C450.262 154.934 450.262 154.934 450.262 155.255C450.262 155.896 450.262 156.217 450.262 156.538C450.905 158.463 450.905 158.142 450.905 160.067C450.905 160.387 450.584 160.708 450.584 161.029C449.941 160.708 448.978 160.067 448.657 160.708C448.014 161.35 448.978 163.595 449.299 164.237C449.941 165.199 450.262 164.878 450.584 166.162C450.905 167.445 451.226 168.728 451.868 170.332C452.832 173.54 454.116 178.031 456.043 180.276C456.686 180.918 457.328 180.597 457.649 181.56C457.97 182.843 457.328 183.484 457.649 184.768C458.292 187.334 460.54 191.183 463.109 192.787C463.43 193.108 465.036 193.429 465.357 193.429C466 194.391 464.073 194.712 465.357 195.995C465.357 195.995 466.642 195.675 467.605 196.637C467.927 196.958 468.248 197.599 468.89 197.92C469.211 198.562 469.854 198.882 470.175 199.524C469.854 199.524 469.854 199.845 470.175 200.486C470.817 201.449 473.708 203.694 473.386 204.978C473.386 205.298 473.708 205.619 474.029 206.261C474.029 205.619 474.35 204.336 474.671 204.336C474.992 204.657 475.313 204.978 475.635 205.298L474.029 206.261C474.35 206.902 474.992 207.544 475.635 208.506C476.919 210.11 478.204 211.714 478.525 212.677L478.846 212.356C479.489 213.96 480.131 215.564 480.773 216.526C481.416 218.13 482.058 219.413 482.7 219.413C482.7 220.055 482.379 220.696 482.379 221.338C482.058 223.263 481.737 225.188 483.022 224.867C483.022 223.904 482.7 223.904 482.379 223.584C482.058 223.263 482.7 223.263 483.022 223.263C483.343 224.546 483.664 226.15 484.306 227.433C483.664 227.433 483.022 227.433 483.022 229.037C483.022 230.32 483.343 231.924 483.664 233.207C483.985 234.491 484.949 233.528 485.27 235.453C485.27 236.736 485.591 237.698 484.627 237.698C484.306 237.378 483.664 236.736 483.664 237.057C483.343 237.057 484.306 238.661 484.949 240.265C485.27 240.906 485.27 241.548 485.591 241.869C485.27 243.152 484.949 244.114 485.27 244.114C484.306 244.435 483.664 244.114 483.343 246.36C483.343 247.001 483.022 249.247 483.343 249.889C483.343 249.568 486.233 245.397 485.591 247.322C485.27 249.247 484.627 250.53 484.306 252.455L483.985 254.059C483.985 254.38 483.985 254.38 483.664 254.7C483.664 255.021 483.343 255.663 483.343 256.304C483.022 255.984 482.058 255.021 482.058 255.342C481.416 255.342 481.737 257.267 481.737 257.588C482.058 258.229 482.379 259.512 481.737 260.154C481.095 260.796 480.452 259.833 480.131 260.154C480.452 259.833 480.773 260.796 480.773 262.079C480.773 263.041 480.452 264.324 480.452 264.966C480.131 265.928 479.81 267.211 479.168 267.853C478.525 268.495 478.525 267.853 477.883 268.495C477.241 269.136 475.313 272.023 475.956 272.344C476.277 272.665 476.277 272.986 476.277 273.306C475.956 273.627 475.635 273.948 475.635 274.269C475.313 274.91 474.992 275.231 474.671 275.873C474.35 275.552 474.992 272.023 473.386 273.627C472.102 274.91 473.065 276.835 471.138 277.798C469.211 279.081 468.89 280.685 467.927 282.289C467.284 283.572 467.284 283.251 466.642 283.572C466 283.893 465.678 285.176 465.357 285.497C465.357 285.817 465.357 286.138 465.357 286.459C465.036 286.459 465.036 286.78 464.715 288.063C464.715 288.063 464.715 288.063 464.715 288.384C464.394 288.705 464.073 289.025 463.43 289.025C463.109 289.025 460.219 288.384 460.54 290.309C460.861 291.271 461.182 291.271 460.219 292.875C459.576 293.516 459.255 292.554 458.934 292.875C458.292 293.196 457.649 294.158 457.328 294.8L458.613 295.441C458.934 295.12 459.897 294.158 460.219 294.158C461.182 294.158 459.255 296.724 459.255 297.366C458.292 299.291 457.97 298.008 456.686 299.612C456.365 299.932 454.438 302.178 454.759 302.499C455.08 303.461 456.043 302.819 455.401 304.744C455.08 305.707 454.438 306.669 454.759 306.99C455.401 308.273 453.474 314.047 453.153 315.651C452.832 317.255 452.511 316.934 451.868 317.255C451.226 317.576 450.905 320.142 450.905 321.105C450.584 322.388 450.262 324.313 451.226 324.954C451.868 325.275 451.547 326.237 451.547 327.2C451.547 327.841 452.189 328.162 452.189 329.124C452.511 330.728 452.189 331.691 452.189 333.295C452.189 333.936 452.832 335.22 453.795 336.182C454.116 336.824 454.116 336.824 454.116 336.824C453.795 336.824 453.474 337.786 453.474 339.069C452.832 337.786 452.189 337.465 452.189 339.39C452.189 341.315 452.189 343.239 452.511 345.164C452.832 347.41 452.511 348.051 453.474 349.014C453.474 349.334 453.474 349.334 453.474 349.655C453.795 349.655 453.795 349.655 453.795 349.976C453.795 350.618 453.795 350.938 453.795 351.58C453.474 352.863 453.153 354.146 452.832 355.43C452.511 355.75 452.511 356.392 452.189 356.713H451.868C451.226 357.675 451.226 357.996 451.547 358.317C451.226 358.958 451.226 359.6 450.905 359.921C450.584 360.562 449.941 362.166 449.299 362.808C448.657 362.487 447.693 363.449 447.051 364.732L448.335 365.374C447.693 367.299 446.408 366.978 445.766 368.903C445.124 370.507 444.803 372.432 445.124 373.715C445.124 373.715 445.124 373.715 445.124 374.036C444.803 374.677 444.803 374.998 444.481 375.319V375.639C444.16 375.96 443.518 376.602 443.197 376.923C441.912 377.885 439.985 379.168 439.664 380.772C439.022 382.376 437.737 384.942 436.131 386.226C435.489 386.867 433.562 386.226 433.24 387.188C432.598 388.471 433.562 388.471 433.883 388.792C433.562 389.434 432.919 390.075 431.956 391.038C430.992 390.717 431.313 388.15 429.065 390.075C427.459 391.358 429.386 391.358 428.423 392.321C426.817 393.925 424.248 395.529 422.321 396.17C417.824 398.416 412.043 399.378 407.868 401.303C406.584 401.945 406.584 402.586 405.62 403.228C403.372 404.832 404.657 403.228 404.014 402.907C403.051 402.586 399.839 403.869 399.197 404.511C398.876 405.152 398.554 405.473 398.233 405.473H397.912C397.591 405.473 397.27 405.152 396.627 404.511C396.627 404.511 396.306 405.152 395.985 405.794C395.343 405.794 394.7 406.115 394.379 406.436C394.379 406.436 394.379 406.115 394.058 406.115C393.094 405.473 391.167 406.756 390.525 407.398C390.204 407.398 389.883 407.719 389.24 408.04C387.956 408.681 386.671 409.002 385.386 409.644C385.065 409.644 385.065 409.323 385.065 409.002C385.386 406.436 381.532 410.927 380.569 411.889C378.321 413.814 376.394 409.964 375.109 412.851C375.43 413.493 376.715 413.814 378.321 413.814C377.357 414.455 376.715 415.097 376.073 415.418C374.788 416.38 374.146 417.022 374.146 417.343C373.182 417.984 372.54 418.626 371.897 417.984C370.934 418.626 369.328 420.871 368.365 419.909C368.365 420.23 369.328 420.23 369.649 420.551C369.649 420.551 369.007 421.192 368.043 421.834C367.401 422.154 367.08 422.796 366.438 423.438C366.116 423.758 365.474 424.079 365.474 424.4C364.511 425.362 363.547 426.004 362.905 426.646C363.547 425.683 363.868 424.4 363.226 424.4C361.299 424.4 360.335 426.325 360.978 427.608C361.299 429.212 357.445 434.665 356.16 434.024C356.481 434.345 357.766 434.665 357.445 435.307C357.124 435.949 356.481 437.232 356.481 437.873C356.481 438.194 356.16 438.515 356.16 438.836C355.197 439.157 353.912 440.76 352.627 442.364C351.664 443.327 350.7 444.61 350.058 445.572C349.416 446.535 348.452 447.176 348.131 447.818C346.846 449.422 345.883 451.026 344.919 452.309C344.598 452.63 344.598 452.951 344.277 453.271C343.956 453.592 343.635 453.913 343.313 454.234C343.313 453.913 343.313 453.592 342.671 453.592C342.671 453.592 341.708 454.875 341.386 454.875C340.744 455.196 341.386 454.875 340.423 454.875C339.459 454.555 337.854 455.196 338.496 456.159C338.496 456.479 338.817 456.479 338.817 456.479C338.496 456.8 337.854 457.442 337.211 458.083C336.569 458.404 335.927 459.046 335.284 459.687C334.642 460.008 334.642 459.366 334.321 459.687C333.036 460.329 331.751 461.291 330.146 461.933C329.182 462.254 329.182 462.895 328.861 463.216C327.576 463.858 326.613 464.499 326.292 464.82C325.328 464.499 324.365 464.499 323.722 464.499C322.116 464.499 321.153 464.82 322.759 465.462C323.08 465.462 323.401 465.782 323.722 465.782C322.759 466.103 321.795 466.424 320.189 466.745C319.868 466.745 319.226 466.745 318.905 466.424C318.905 466.424 317.941 466.103 317.62 466.103C317.941 466.103 318.262 466.424 318.584 467.066C317.941 467.386 316.978 467.386 316.335 467.707C315.693 467.386 314.73 467.066 314.73 467.066C311.518 465.782 313.445 467.065 314.73 468.028C314.087 468.349 313.445 468.349 312.803 468.669C311.839 468.349 310.875 468.349 311.197 468.99C311.197 468.028 301.562 468.99 299.956 468.669C297.708 468.669 296.102 468.99 294.175 468.99C292.569 468.99 291.927 467.386 290.642 467.707C290.321 467.707 289.357 468.028 288.715 468.349C288.394 468.349 288.073 468.349 287.751 468.349C288.715 467.707 290.963 465.782 288.394 466.424C287.751 466.424 286.788 466.424 286.146 466.424C285.503 466.424 284.861 466.424 284.54 467.066C284.219 467.066 284.219 466.745 283.897 466.745C283.255 466.103 282.613 465.782 281.97 465.462C281.649 465.141 281.328 464.499 280.365 463.858C279.722 463.537 279.08 463.858 278.438 464.178C276.189 463.537 274.262 462.895 272.657 461.933C272.657 460.97 273.299 460.008 273.299 459.366C271.693 459.687 270.087 460.008 268.481 460.329C267.518 460.008 266.876 460.008 266.554 460.008C266.233 459.366 265.912 458.725 265.27 457.762C264.949 458.725 262.7 457.762 261.737 457.762C261.416 457.762 260.452 457.763 259.81 458.083C259.167 458.083 258.846 457.762 258.204 457.762C258.204 456.8 258.846 456.159 255.635 456.159C252.744 456.479 252.102 455.838 252.102 454.555C250.496 454.555 251.138 455.196 250.496 455.517C249.532 456.159 247.284 455.517 246 455.838C245.678 455.838 245.357 456.159 245.357 456.159C243.109 456.159 242.467 456.159 242.467 456.479C242.467 456.8 242.467 456.8 242.467 456.8C241.824 456.479 239.897 456.479 237.328 456.8C237.328 456.479 237.649 455.838 238.613 455.838C238.934 455.517 239.897 455.517 239.897 454.875C237.328 455.196 236.365 456.159 235.08 457.121C234.116 457.121 233.153 457.442 232.511 457.762C232.832 457.442 232.832 457.121 232.832 457.121C232.832 457.121 232.189 457.442 231.868 457.762C231.226 458.083 230.905 458.404 230.905 458.404C230.262 458.725 229.299 458.725 228.657 459.046C228.657 459.046 228.657 459.046 228.335 459.046C226.73 458.725 223.518 459.687 224.481 460.65C224.16 460.97 223.518 460.97 223.197 461.291C223.197 460.97 223.197 460.329 222.875 460.008C222.554 459.366 221.912 460.008 221.27 460.65C220.306 461.291 219.985 461.933 219.664 462.574C219.021 462.574 217.737 463.216 215.489 464.178C214.204 463.537 212.598 464.499 212.598 465.462C212.598 465.462 212.598 465.462 212.277 465.462C211.956 464.82 210.992 464.178 209.386 464.82C209.386 465.141 210.029 465.782 210.029 466.424C209.386 466.745 208.744 466.745 208.102 467.066C207.138 466.424 206.817 465.782 204.89 466.103C203.605 466.424 203.284 467.065 201.678 467.386C201.357 466.103 195.576 467.386 194.613 467.386C192.686 467.707 195.255 468.99 194.934 469.311C194.934 469.311 194.934 469.311 194.613 469.311C194.292 469.311 193.97 469.311 193.649 469.311C192.365 468.99 191.722 467.386 191.401 467.066C191.08 466.424 188.189 466.424 187.226 466.424C184.978 466.424 182.408 466.103 180.16 466.103C179.518 466.103 175.021 466.424 174.7 466.103C174.379 465.462 179.197 464.178 177.27 464.178C176.627 464.178 174.7 464.178 172.773 464.178C170.846 464.178 169.24 463.858 169.24 464.499C169.562 463.537 168.598 462.895 167.313 461.933C166.029 461.291 164.744 460.65 163.459 460.329C162.496 460.008 161.854 460.329 160.89 460.008C159.284 459.366 158.321 458.725 157.357 457.762C156.715 456.8 156.073 455.517 155.109 454.555C154.467 453.913 154.467 454.234 154.146 454.555C153.182 453.913 152.54 453.271 151.897 452.63C150.613 451.347 149.007 451.026 147.722 449.422C146.438 448.139 146.116 447.176 145.153 445.893C144.832 445.252 143.868 443.968 143.226 443.648C142.584 443.327 141.62 442.364 140.657 441.081C139.693 439.798 139.051 438.194 138.73 437.232C138.408 436.59 134.554 432.741 134.554 432.42C134.554 432.099 135.839 432.42 136.16 432.42L134.233 430.495C133.912 430.495 133.27 430.174 132.306 429.853C131.985 429.533 131.985 429.212 131.664 428.891C131.985 428.57 132.306 428.25 132.306 427.929C131.985 426.966 131.021 425.683 130.379 425.042C129.094 424.079 126.846 422.796 128.131 421.834C127.81 422.154 126.204 421.513 126.204 421.834C126.204 420.55 125.883 419.909 123.956 418.305C123.313 417.663 122.029 416.38 121.065 416.059C120.423 415.739 120.744 416.38 120.102 416.059C118.175 414.776 118.175 413.493 115.927 412.21C115.605 411.889 114 411.247 113.036 410.285C111.751 409.644 110.788 408.681 111.109 408.36C108.861 407.077 110.146 409.644 108.54 409.002C107.576 408.681 107.255 407.398 107.255 407.077C106.613 406.756 106.292 406.115 105.649 405.794C104.043 404.832 96.6565 404.832 97.2989 403.548C97.2989 403.869 96.9777 404.511 96.3354 405.152C95.693 404.832 95.0507 404.832 94.4084 404.832C94.4084 404.832 94.4084 404.832 94.4084 404.511C94.0872 404.19 93.4448 403.869 93.1237 403.869C91.839 403.228 91.1967 402.907 89.912 402.907C89.5908 402.907 88.6273 402.907 88.6273 402.586C88.3062 401.944 90.2332 400.982 89.912 400.661C89.5908 400.341 88.9485 400.661 87.985 400.661C87.0215 400.661 86.058 400.661 85.7368 400.661C84.4521 400.341 83.4886 399.699 82.204 399.057C81.2405 398.416 80.277 397.774 79.3135 397.133C77.3864 395.849 77.3864 400.341 74.8171 397.133C73.5324 395.529 73.5324 394.566 70.9631 393.283C69.9996 392.962 66.7879 393.283 67.4302 391.679C68.0726 389.754 64.8609 389.113 63.5762 388.792C60.6857 388.15 61.3281 385.905 60.0434 384.301C59.0799 383.018 58.4375 383.659 58.1164 384.301C57.7952 383.659 57.1529 383.018 56.1894 382.055C56.1894 381.414 55.8682 381.093 55.547 381.093C54.9047 380.772 54.5835 379.81 53.62 379.168C53.9412 378.847 54.9047 378.847 53.9412 376.923C52.3353 373.394 49.766 369.544 47.839 366.336C47.1967 365.374 46.8755 365.053 46.2332 364.091C44.3062 362.487 47.839 362.808 47.5178 362.487C46.8755 360.241 44.3062 362.166 45.2697 358.958C45.2697 358.317 44.6273 357.675 44.6273 357.354C44.3062 356.713 43.3426 354.146 42.7003 351.58C42.058 349.014 41.7368 346.447 42.3791 346.447C41.7368 345.485 41.0945 344.523 40.7733 343.56C40.7733 343.239 40.7733 342.919 40.7733 342.277C41.4156 341.635 41.4156 340.352 41.7368 339.069C42.058 337.144 42.7003 337.465 43.6638 336.824C44.3062 336.182 41.4156 333.936 41.7368 332.012C42.058 332.012 44.3062 333.295 44.3062 332.653C44.9485 331.049 43.985 328.483 43.3426 328.162C42.7003 328.162 42.058 329.124 42.058 327.841C42.058 326.879 42.058 326.558 42.7003 325.917C43.3426 324.954 44.6273 326.237 45.5908 325.596C45.5908 325.275 44.3062 324.313 44.6273 324.313C44.3062 323.35 43.985 322.388 43.6638 321.425C43.6638 320.463 43.985 320.142 43.6638 319.501C43.0215 318.538 42.7003 318.218 42.058 317.576C41.4156 316.934 43.3427 315.972 42.3791 314.368C42.058 313.726 41.4156 313.726 41.0945 313.085C40.7733 312.443 40.4521 311.16 40.4521 310.518C41.0945 312.764 43.0215 315.651 42.3791 311.802C42.058 310.198 41.0945 306.99 39.8098 307.311C40.7733 306.99 40.4521 304.423 39.1675 301.536C38.204 298.649 36.277 295.762 35.6346 294.479C34.6711 292.875 34.3499 293.196 33.7076 293.516C33.3864 293.196 32.7441 292.233 32.1018 291.271C33.0653 289.346 30.4959 284.855 28.5689 282.609C27.2843 281.326 25.9996 279.722 24.7149 279.402C22.7879 278.76 21.8244 278.439 20.2186 276.194C22.1456 278.439 24.0726 278.118 21.8244 275.552C20.5397 273.306 18.6127 271.382 17.3281 269.136C16.0434 266.891 15.0799 265.607 13.474 264.966C14.1164 265.287 14.7587 265.287 15.0799 264.645C15.401 264.324 14.7587 262.4 14.1164 262.4C13.1529 262.4 12.8317 260.796 12.5105 259.512C12.1894 258.871 11.547 259.192 10.9047 258.55C10.2624 257.908 10.9047 256.625 10.5835 255.663C10.5835 254.7 10.2624 253.738 9.94119 252.776C9.62002 251.813 9.29885 250.53 8.33535 250.209C7.69301 249.889 7.69302 248.605 7.69302 247.643C8.65652 247.322 8.97769 247.964 8.33535 246.039C8.01418 244.756 7.37185 243.473 7.05068 242.51C7.05068 242.51 6.72951 241.869 6.72951 241.227C6.72951 240.906 6.72951 240.906 6.72951 240.586C6.72951 240.586 6.72951 240.586 7.05068 240.586C7.37185 240.586 7.37184 241.548 8.01418 241.227C8.01418 239.302 7.69302 239.623 7.05068 238.34C6.72951 237.698 6.08718 235.453 7.05068 234.811C8.01418 233.849 8.33535 235.453 8.97769 232.887C9.29886 231.603 10.2624 229.679 10.2624 228.395C10.5835 226.791 9.62003 227.754 9.29886 227.433C8.65652 227.112 8.65652 225.829 9.29886 224.867C9.62003 224.225 10.9047 221.98 10.2624 221.98C11.2259 222.3 11.8682 220.696 12.1894 219.092C12.5105 217.488 12.8317 215.564 13.1529 214.601C13.7952 213.318 13.7952 213.639 14.7587 212.677C15.401 211.393 16.0434 210.11 17.0069 208.827C17.3281 208.506 18.2916 206.261 19.5762 204.657C20.8609 203.053 22.1456 201.77 22.4667 202.09C23.4302 200.486 23.7514 200.166 23.1091 199.203C22.7879 198.882 23.1091 196.958 23.7514 196.316C23.7514 196.316 25.3572 196.958 25.9996 196.637C27.2843 196.316 28.5689 194.712 29.2113 193.429C29.8536 192.146 30.4959 190.863 31.1383 189.9C31.1383 189.579 32.4229 189.579 32.7441 189.259C34.6711 187.976 32.1018 186.051 33.0653 184.447C34.6711 182.201 34.9923 185.73 36.277 184.447C38.204 181.88 38.204 178.031 38.5251 175.465C38.8463 175.144 40.131 169.049 40.4521 171.936C39.4886 174.502 40.131 175.465 41.4156 172.898C42.058 171.936 42.7003 168.728 41.7368 168.728C41.4156 168.728 40.131 170.011 40.131 169.049C40.131 169.049 41.0945 168.086 42.058 166.803C43.0215 165.52 43.985 164.237 43.3426 163.916C42.7003 163.274 42.058 163.595 41.7368 162.954C41.4156 162.312 41.0945 161.35 41.0945 160.708V160.387C42.3791 160.708 43.0215 161.029 43.6638 158.142C43.985 157.5 43.3426 152.688 42.7003 153.971C42.7003 153.009 42.7003 152.367 42.7003 151.405C43.3426 151.405 43.985 152.047 44.3062 151.405C44.9485 150.764 44.9485 148.839 44.9485 147.556C44.3062 144.668 41.7368 144.348 43.6638 141.781C46.2332 141.461 43.0215 139.857 42.7003 137.611C42.7003 136.328 43.985 134.403 43.3426 133.441C43.3426 133.12 42.058 131.516 41.7368 131.516C42.7003 130.554 43.0215 131.837 43.3426 129.912C43.6638 128.95 44.3062 127.025 43.3426 126.704C42.7003 126.062 43.0215 124.458 43.3426 123.175C43.6638 122.534 42.058 121.892 42.3791 119.967L41.4156 121.251C41.0945 120.288 40.7733 119.647 41.4156 118.363C42.058 118.363 43.0215 118.684 42.7003 119.967L44.3062 120.288C44.6273 119.326 44.9485 117.722 44.3062 117.401C43.985 116.118 43.985 115.797 44.9485 114.835C45.2697 113.872 45.2697 113.552 44.6273 113.231C43.985 112.91 44.3062 111.306 44.9485 110.344L47.1967 111.306C46.2332 110.985 47.5178 107.136 48.4813 105.852C49.4448 104.249 50.0872 104.569 50.7295 103.607C54.2624 99.1158 57.474 94.3039 61.6492 90.4544C61.6492 90.4544 62.2916 90.7752 63.2551 90.1336C63.8974 89.492 64.5397 88.8504 65.1821 88.2089C67.4302 85.9633 69.6784 84.3593 71.9266 82.4346C73.5324 81.4722 75.4594 80.189 77.0653 79.2267C78.9923 78.2643 80.9193 77.3019 82.5251 76.3395C84.131 75.6979 85.4156 75.0563 86.058 74.094C86.3791 73.4524 87.985 73.1316 88.9485 73.1316C88.3062 73.4524 87.6638 74.094 88.6273 73.7732C90.8755 73.4524 93.4448 72.8108 96.0142 72.1692C96.9777 71.8484 99.8682 71.5276 100.511 70.5652C100.832 70.2444 100.189 69.2821 99.8682 68.6405C100.189 68.6405 100.832 68.3197 101.153 68.3197C102.116 68.6405 102.438 69.2821 102.759 69.9237C103.401 70.886 105.007 69.9237 106.934 68.9613C109.503 67.9989 112.073 66.3949 114.321 65.7533C114.642 65.4326 115.605 65.7533 115.927 65.4326C117.211 64.791 117.532 63.8286 118.175 62.8662C119.459 60.9414 122.992 60.2999 124.919 58.6959C127.167 57.0919 126.846 56.1296 126.846 54.5256C127.167 51.6384 128.452 54.2048 129.094 54.2048C130.379 54.5256 130.7 50.9969 130.7 50.6761C131.343 48.4305 133.27 49.0721 134.233 48.1097C135.839 46.8266 136.803 44.581 137.766 42.977C138.408 41.6939 140.978 35.9196 141.941 36.5612C142.905 35.5988 143.547 33.9948 144.189 32.7117C146.759 27.8998 150.613 24.371 154.467 20.5215C155.751 19.2383 157.357 17.6344 156.715 16.672C157.036 17.3136 157.357 18.276 158.642 17.9552C159.605 17.6344 159.927 16.9928 160.89 16.672C161.532 16.3512 162.175 16.3512 162.496 16.0304C165.065 15.3888 166.992 14.1057 169.562 13.1433C169.883 12.5017 171.489 11.8601 172.773 11.5393C174.058 10.8977 175.343 10.5769 175.343 10.5769C175.664 9.61455 175.343 8.65218 175.343 7.6898C175.664 7.6898 175.985 7.369 176.306 7.369C177.591 7.04821 178.233 6.72742 178.554 6.72742C178.876 7.04821 178.876 7.369 178.233 8.01059C176.627 9.93535 177.912 9.93535 180.481 9.29376C181.445 8.97297 183.372 8.97297 184.014 8.33138C184.657 7.6898 184.335 7.369 185.62 7.6898C186.584 7.6898 191.401 9.29377 190.759 10.2561C191.722 9.29377 192.365 9.29376 194.613 9.29376C196.54 9.29376 198.146 9.61455 200.073 9.29376C200.394 9.29376 202.321 8.65217 202.642 8.97297C202.963 9.29376 203.605 10.2561 204.248 10.5769C205.532 10.8977 206.817 10.5769 208.102 10.8977L212.277 12.1809C213.883 13.7849 214.846 12.5017 215.167 11.8601C215.81 11.2185 216.773 11.5393 217.737 12.1809C217.094 13.4641 216.452 13.7849 219.021 15.068C223.518 17.6344 228.657 19.2383 233.795 20.2007C234.116 20.2007 239.576 21.4839 238.934 20.5215C237.649 19.2383 240.861 19.8799 241.824 19.8799C242.788 20.2007 242.146 20.8423 243.109 21.1631C243.751 21.4839 244.715 21.4839 245.357 21.4839C246.642 21.4839 250.817 21.8047 251.781 20.8423C252.744 20.2007 254.029 20.5215 255.635 19.8799C256.598 19.5591 257.562 18.276 257.883 18.276C258.525 18.276 258.846 18.9176 259.489 18.9176C261.094 19.2383 263.021 18.9176 264.627 18.276C267.197 17.3136 270.087 16.3512 272.335 15.068C273.62 14.4265 273.941 13.7849 273.62 13.1433C274.262 12.1809 273.299 11.8601 272.014 11.5393C272.335 11.2185 272.657 11.2185 272.978 10.8977C272.978 10.8977 272.657 10.5769 272.657 10.2561C272.335 9.61456 272.014 8.97297 268.803 9.93535C262.379 12.1809 257.562 12.5017 257.562 13.1433C257.562 13.1433 255.956 13.7849 254.35 14.1057C252.744 14.4265 251.138 14.1057 251.138 14.1057C251.138 13.7849 244.394 14.4265 236.365 12.8225C231.547 11.8601 228.014 10.5769 225.445 9.61456C222.876 8.65218 221.591 7.6898 220.948 7.04821C219.343 5.76504 217.416 5.12345 217.416 5.12345C217.416 5.12345 216.773 5.12345 215.489 4.48187C214.204 4.16107 212.277 3.51949 210.029 2.8779C207.781 2.23631 204.89 1.59473 202 1.27393C199.109 0.953141 195.576 0.311559 192.365 0.632352C185.62 0.632352 178.554 1.59473 173.737 3.19869C172.452 3.51949 171.489 3.84028 170.204 4.16107C169.24 4.48186 168.277 4.80266 167.635 5.12345C166.35 5.76504 165.386 6.08583 165.386 6.08583C164.423 6.40662 163.459 6.72742 162.817 7.04821C162.175 7.36901 161.854 7.6898 161.854 7.6898C161.532 7.369 158 8.97297 154.788 11.2185C153.182 12.5017 151.576 13.7849 150.613 14.7472C149.328 15.7096 148.686 16.3512 148.686 16.3512C148.365 16.0304 146.759 17.3136 143.868 19.8799C140.978 22.4463 139.693 24.0502 140.014 24.371C139.372 25.0126 136.802 28.2206 134.233 31.7493C132.948 33.674 131.985 35.5988 130.7 37.5236C129.737 39.1275 128.773 40.4107 128.131 41.3731C126.846 42.6562 126.204 43.9394 125.562 45.5434C125.883 45.8642 125.24 47.4681 123.956 48.7513C123.956 48.7513 123.635 48.4305 123.313 48.1097C123.956 46.5058 123.956 46.5058 122.029 49.0721C121.065 50.3553 119.781 51.3177 119.781 51.3177C119.781 51.6384 118.496 52.9216 115.927 55.1672C113.357 57.4127 109.182 59.9791 104.043 62.5454C100.832 64.1494 97.62 65.1118 95.3719 65.7533C94.0872 66.0741 93.1237 66.3949 92.1602 66.3949C90.8755 67.3573 89.912 67.3573 88.9485 67.6781C85.4156 68.6405 83.8098 68.9613 84.131 69.2821C84.131 69.6029 82.5251 70.2445 76.7441 71.8484C70.9631 73.4524 68.3937 74.7355 66.7879 75.6979C65.1821 76.3395 64.8609 76.9811 64.2186 77.6227C65.8244 76.3395 66.1456 76.9811 66.1456 77.3019C66.4667 77.9435 64.8609 79.2267 62.9339 79.5474C62.6127 79.2267 56.5105 83.397 51.3718 89.1712C46.2332 94.9455 42.7003 102.003 42.7003 102.965C42.7003 102.965 42.3791 102.965 42.3791 102.645C42.058 102.324 40.7733 103.928 37.8828 111.306C36.5981 115.155 36.277 117.08 36.277 117.08C36.5981 117.08 36.277 119.967 35.6346 122.855C34.9923 125.421 34.6711 128.308 34.35 128.308C33.7076 130.233 33.7076 130.233 33.7076 134.082C34.0288 136.969 34.6711 141.14 34.6711 144.027C34.9923 146.593 34.6711 148.839 34.6711 148.839C34.6711 148.839 34.6711 150.443 34.6711 152.047C35.3135 153.651 34.9923 156.859 34.6711 158.463C34.0288 163.274 33.3864 164.878 34.35 163.274C34.6711 163.274 35.3135 163.595 34.6711 165.199H34.35C34.0288 165.199 33.0653 170.011 30.1748 175.785C26.6419 183.164 24.0726 185.73 23.1091 186.692C23.1091 186.692 23.1091 186.692 22.4667 188.296C21.8244 189.9 20.5397 191.183 20.2186 190.863C19.5762 191.183 17.6492 193.108 16.0434 195.033C14.1164 196.958 12.8317 199.524 11.8682 201.449C11.2259 202.09 10.9047 203.053 10.5835 203.694C10.2624 204.336 9.94119 204.657 9.94119 204.657C8.65652 205.298 7.37185 206.582 6.72951 208.506C5.76601 210.431 5.12367 212.356 5.12367 213.318C4.8025 212.997 4.16017 214.922 3.51783 216.847C2.55433 220.696 0.948489 228.395 0.627321 228.395C0.627321 228.395 0.62732 228.395 0.306152 230.32C0.306152 232.245 0.306152 234.17 0.306152 236.094C0.306152 238.019 0.306154 239.944 0.627321 241.869C0.948489 242.831 0.948492 243.793 1.26966 244.435C1.26966 245.077 1.59082 245.718 1.59082 245.718C1.91199 247.643 0.948489 245.718 0.627321 243.794C0.306154 241.869 0.306152 242.19 0.306152 244.114C0.62732 245.718 1.26966 248.605 1.91199 251.493C4.16017 256.946 4.16017 256.946 2.23316 253.417C1.26966 251.493 0.62732 249.889 1.91199 253.417C1.91199 253.417 2.87549 257.267 3.19666 257.267L5.12367 262.72C6.08717 266.57 7.05068 268.174 8.01418 270.099C9.29885 271.702 9.29885 271.703 9.94119 273.627C9.62002 273.948 10.5835 275.552 11.2259 275.231C12.8317 276.514 13.7952 278.118 14.7587 280.043C14.1164 280.685 15.401 281.968 15.7222 281.968C17.3281 283.251 18.6127 284.534 18.6127 284.534C18.6127 284.534 18.6127 284.855 18.9339 285.176C19.2551 285.497 19.5762 286.138 20.2186 286.78C20.5397 287.101 20.8609 287.742 21.5032 288.063C21.5032 288.063 21.5032 288.384 21.8244 288.384C21.8244 288.384 21.8244 288.384 21.8244 288.063C22.7879 289.025 23.7514 290.309 24.7149 291.592C25.0361 292.233 25.3572 292.554 25.9996 293.196C25.9996 293.196 25.9996 293.196 26.3208 293.196C29.2113 297.366 32.1018 303.14 33.7076 309.556C34.3499 311.16 34.9923 312.764 35.3135 312.443C36.277 312.122 35.6346 312.443 35.6346 314.047C34.6711 315.972 34.9923 319.18 36.277 317.255C36.9193 315.651 36.9193 315.651 36.5981 318.859C36.277 320.463 36.277 320.463 36.9193 322.067C37.2405 322.067 37.5616 323.671 36.9193 323.671C36.5981 325.275 35.9558 326.879 36.5981 326.879C36.5981 326.879 36.5981 328.483 35.9558 330.087C35.6346 330.728 35.6346 331.691 35.6346 332.653C35.6346 333.616 35.6346 334.578 35.9558 335.54C35.9558 337.144 35.9558 338.107 35.9558 339.069C35.9558 340.031 36.277 340.673 36.277 341.315C36.277 342.277 35.9558 342.277 35.6346 341.315C35.3135 340.352 34.9923 342.277 35.3135 344.843C35.3135 347.41 36.277 350.297 36.5981 351.259C36.9193 351.901 37.2405 352.542 37.5616 352.542V352.863C37.2405 352.863 37.5616 354.788 37.5616 354.788C37.8828 356.713 38.204 358.637 37.8828 358.637C37.8828 358.637 38.5251 360.562 40.131 364.091C41.0945 365.695 42.3792 367.94 43.0215 369.865C43.985 371.79 44.6273 373.715 44.6273 374.677C44.6273 374.677 44.6273 374.677 46.8755 377.885C48.8025 379.168 50.0872 380.451 49.4448 380.772C49.1237 381.093 48.8025 381.414 49.1237 381.093C49.4448 381.414 49.766 381.735 50.4083 382.055C50.0872 382.697 51.3718 383.98 50.7295 384.301L51.693 383.659C52.0142 384.301 52.6565 384.622 52.9777 385.263C53.2989 385.584 53.2989 385.905 53.62 386.226C53.62 386.546 53.62 386.546 53.62 386.546C53.62 386.546 53.9412 386.546 54.2624 386.867C54.9047 387.83 55.547 388.792 55.2259 388.792C54.9047 389.113 54.9047 389.113 56.1894 390.396L56.5105 390.075C56.8317 389.754 57.1529 389.434 58.4375 390.717C59.401 391.679 60.3646 392.321 60.6857 392.962C60.6857 392.962 60.6857 393.283 61.0069 393.283C61.0069 393.604 61.0069 393.604 61.0069 393.604C62.2916 395.208 63.5762 396.812 63.8974 396.17C63.8974 396.17 65.5032 397.453 66.7879 398.737C68.3937 399.699 69.9996 400.661 73.5324 402.586C74.8171 402.907 76.7441 403.548 78.0288 404.19C78.6711 404.511 78.9923 404.832 78.9923 404.832C78.9923 404.832 82.8463 406.115 84.7733 406.436C88.6273 407.398 90.5543 407.719 90.2332 408.36C90.2332 408.681 90.2332 408.681 92.1602 408.681C92.1602 408.36 93.766 408.681 95.3719 409.002C96.9777 409.323 98.5835 409.964 98.5835 409.964C98.5835 409.644 98.5835 409.644 100.189 409.964C101.795 410.285 106.292 412.851 107.576 413.493C112.073 415.739 111.751 416.059 110.788 414.776C109.182 414.135 109.503 413.493 112.073 415.739C113.357 416.701 117.532 419.588 120.744 423.117C125.24 427.608 125.24 427.929 125.562 427.608C125.562 427.287 125.562 426.966 125.562 426.966C125.883 426.966 125.883 427.287 126.204 427.287C126.204 427.608 126.525 427.929 126.525 428.25V428.57C126.525 428.891 126.525 428.891 126.525 429.212C127.81 432.42 128.773 433.703 129.094 433.382C129.094 433.382 129.094 433.382 129.416 433.703C129.737 434.345 130.058 434.665 130.7 434.986L131.021 435.307C131.021 435.628 131.343 435.628 131.343 435.949C131.021 436.269 131.664 437.232 133.912 440.76C134.233 441.081 134.233 441.402 134.554 441.723C134.233 442.044 134.233 442.364 133.912 442.685C134.233 443.006 134.554 443.006 134.876 443.327C135.197 443.968 135.839 444.931 136.803 445.893C137.445 446.535 138.408 447.818 139.693 449.101C140.978 450.384 141.941 451.667 143.226 452.951C145.795 455.517 148.043 458.083 148.686 458.725C148.686 458.725 149.007 459.046 149.649 459.366C150.292 459.687 150.934 460.329 151.897 460.65C153.824 461.291 155.43 462.254 155.109 462.895C154.467 463.537 154.467 463.537 156.715 463.858C158.321 464.82 167.313 468.669 165.065 468.669C164.744 468.99 164.744 469.311 164.744 469.311C166.671 469.632 168.598 470.273 168.598 470.273C168.919 469.953 170.525 470.594 176.306 472.198C178.233 472.519 181.124 473.161 184.014 473.481C186.262 474.765 189.153 474.765 191.08 474.765ZM285.182 469.632C285.503 469.632 285.503 469.632 285.182 469.632C285.503 469.632 285.503 469.632 285.824 469.632C285.824 469.632 285.503 469.632 285.182 469.632ZM309.27 473.802C308.948 474.123 308.306 474.123 308.306 474.123C306.379 474.123 306.379 474.123 306.379 474.123C306.379 473.802 306.379 473.161 308.306 473.161C308.949 473.161 309.591 473.161 310.233 472.84C310.233 473.161 309.591 473.481 309.27 473.802ZM453.153 342.277C453.153 342.277 453.153 341.956 453.153 342.277C453.153 342.277 452.832 342.277 453.153 342.277ZM486.233 258.55C486.233 258.229 486.233 257.908 486.233 257.588L486.554 256.946L486.233 258.55ZM452.189 159.425C452.511 159.425 452.511 159.746 452.832 160.067V160.387C452.832 160.387 452.832 160.387 452.511 160.708C452.511 160.067 452.189 159.746 452.189 159.425ZM452.189 145.31C452.189 144.027 452.511 142.744 452.511 142.102C452.511 142.423 452.832 143.385 452.832 144.348C452.511 144.989 452.511 145.631 452.189 146.272C452.189 145.952 452.189 145.631 452.189 145.31ZM464.073 184.126C463.751 184.126 463.751 183.805 463.43 183.805C463.751 184.126 464.073 184.126 464.394 183.805C465.678 185.088 465.357 185.088 464.073 184.126ZM379.927 60.9414C379.605 60.9414 379.284 60.6207 378.963 60.2999C378.321 59.9791 377.678 59.3375 377.036 59.3375C376.394 59.0167 375.751 58.6959 375.43 58.3751C375.43 58.0543 375.109 57.7335 375.109 57.4127C375.43 57.7335 375.751 57.7335 375.751 58.0543C377.036 59.0167 378.642 59.9791 379.927 60.9414ZM337.532 18.5968C336.569 17.6344 335.605 16.672 334.642 16.3512C335.284 16.672 335.927 16.9928 336.569 17.6344C336.89 17.9552 337.211 18.276 337.854 18.5968C337.854 18.276 337.854 18.5968 337.532 18.5968C337.532 18.5968 337.854 18.5968 337.532 18.5968ZM326.292 9.61456C325.97 9.61456 325.649 9.61456 325.328 9.61456C325.328 9.61456 325.007 9.61455 325.007 9.29376C324.686 8.97297 325.328 8.97297 326.292 9.61456ZM307.664 4.80266H307.985C307.664 4.80266 307.343 4.80266 307.343 4.80266C307.021 4.80266 306.379 4.80266 306.058 4.48187C306.7 4.48187 307.343 4.80266 307.664 4.80266ZM416.861 77.3019C416.54 76.9811 416.219 76.9811 416.219 76.9811L416.54 76.6603C417.182 76.3395 417.824 76.9811 418.146 77.9435C417.824 77.9435 417.503 77.6227 416.861 77.3019ZM453.153 170.332C453.474 169.37 453.795 167.766 454.438 170.011C455.08 171.936 453.795 171.936 453.153 170.332ZM472.744 200.486C472.744 200.486 472.423 200.486 472.744 200.486V200.486ZM484.949 225.829C484.627 224.867 484.949 225.508 485.27 226.471C485.27 226.791 484.949 226.791 484.949 226.791C484.949 226.15 484.949 225.829 484.949 225.829ZM470.175 277.798C470.817 277.477 471.781 277.477 472.102 277.798C472.102 277.798 472.102 277.798 472.102 278.118L471.781 278.439C471.781 278.439 471.138 279.402 470.175 280.364C468.89 280.685 467.605 279.402 470.175 277.798ZM451.547 320.463C451.547 320.784 451.547 321.105 451.547 321.425C451.547 321.425 451.547 321.105 451.547 320.463C451.547 320.784 451.547 320.784 451.547 320.463ZM363.868 426.004C364.189 425.683 364.511 425.683 364.832 425.362H365.153C364.832 425.683 364.832 426.325 364.511 426.646C363.547 427.929 363.547 427.929 363.547 427.929C363.226 427.608 362.905 427.287 363.868 426.004ZM200.394 469.311C199.109 469.311 198.467 469.632 197.503 469.632C198.467 469.311 199.43 468.99 200.394 469.311ZM137.124 437.553C137.766 438.515 138.408 439.798 137.766 440.119L137.124 439.156C137.124 438.836 136.803 438.836 136.803 438.515L135.839 436.59C136.481 436.59 136.803 436.59 137.124 437.553ZM99.2259 406.756C100.189 406.436 101.474 407.398 99.8682 407.398C99.8682 407.398 99.8682 407.398 99.547 407.398C98.9047 407.077 98.5835 406.756 97.9412 406.756C98.5835 406.436 98.9047 406.436 99.2259 406.756ZM32.1018 293.837C32.1018 293.837 31.7806 293.837 32.1018 293.837V293.837ZM12.1894 265.287C11.8682 265.287 11.8682 265.287 11.547 264.966C11.8682 265.287 12.1894 265.287 12.1894 265.287ZM18.2916 203.694C17.6492 204.015 16.6857 204.336 16.3645 204.015C17.3281 202.411 18.2916 202.09 19.2551 202.732L18.2916 203.694ZM193.328 8.97297C192.043 8.97297 190.438 8.65218 191.401 7.6898C192.043 7.04821 193.328 7.369 194.613 7.369C194.613 8.01059 194.613 8.97297 193.328 8.97297ZM222.233 16.3512C221.912 15.7096 221.912 15.068 221.912 14.4265C221.912 14.4265 221.912 14.4265 222.233 14.4265C223.197 14.7472 223.839 15.068 224.16 15.3888C223.518 15.7096 222.233 16.9928 222.233 16.3512ZM230.262 17.6344C229.299 17.3136 228.335 16.9928 228.335 16.3512C229.62 16.3512 230.584 16.3512 231.868 16.672C231.547 17.3136 231.547 17.9552 230.262 17.6344ZM260.452 13.7849C262.058 12.8225 262.7 12.8225 262.7 12.8225C262.7 13.1433 262.058 13.7849 260.452 14.4265C259.81 14.7472 259.81 15.068 259.489 15.3888C259.167 15.3888 259.167 15.3888 258.846 15.3888V15.068C258.846 14.7472 258.846 14.4265 260.452 13.7849ZM45.5908 99.7574C44.9485 100.72 44.6273 102.003 44.3062 102.324C44.3062 102.645 43.985 102.645 43.6638 102.965C43.6638 102.324 43.985 102.003 44.3062 101.041C45.2697 99.4366 45.2697 99.4366 45.5908 99.7574ZM20.8609 286.78C19.8974 285.497 19.8974 285.497 19.8974 285.497C20.2186 285.176 20.5397 285.176 20.8609 285.497C21.1821 286.138 21.1821 286.459 20.8609 286.78ZM21.8244 287.421C21.8244 287.421 22.1456 287.421 21.8244 287.421L22.4667 287.742L21.8244 287.421ZM31.7806 303.461C31.1383 302.178 31.1383 301.857 31.4594 301.857C31.7806 302.499 32.1018 302.819 32.1018 303.14C32.4229 303.461 32.4229 304.103 32.7441 304.423V304.744C32.4229 304.744 31.7806 303.461 31.7806 303.461Z" fill="#162C29"/>
<circle cx="339.5" cy="92.5" r="5.5" fill="#162C29"/>
<circle cx="412.5" cy="98.5" r="5.5" fill="#162C29"/>
<circle cx="390.5" cy="136.5" r="5.5" fill="#162C29"/>
<circle cx="430.5" cy="182.5" r="5.5" fill="#162C29"/>
<circle cx="406.5" cy="260.5" r="5.5" fill="#162C29"/>
<circle cx="435.5" cy="293.5" r="5.5" fill="#162C29"/>
<circle cx="400.5" cy="324.5" r="5.5" fill="#162C29"/>
<circle cx="425.5" cy="342.5" r="5.5" fill="#162C29"/>
<circle cx="345.5" cy="416.5" r="5.5" fill="#162C29"/>
<circle cx="289.5" cy="405.5" r="5.5" fill="#162C29"/>
<circle cx="215.5" cy="439.5" r="5.5" fill="#162C29"/>
<circle cx="209.5" cy="410.5" r="5.5" fill="#162C29"/>
<circle cx="155.5" cy="405.5" r="5.5" fill="#162C29"/>
<circle cx="155.5" cy="373.5" r="5.5" fill="#162C29"/>
<circle cx="99.5" cy="373.5" r="5.5" fill="#162C29"/>
<circle cx="105.5" cy="324.5" r="5.5" fill="#162C29"/>
<circle cx="83.5" cy="254.5" r="5.5" fill="#162C29"/>
<circle cx="45.5" cy="241.5" r="5.5" fill="#162C29"/>
<circle cx="78.5" cy="130.5" r="5.5" fill="#162C29"/>
<circle cx="124.5" cy="119.5" r="5.5" fill="#162C29"/>
<circle cx="178.5" cy="92.5" r="5.5" fill="#162C29"/>
<circle cx="198.5" cy="43.5" r="5.5" fill="#162C29"/>
<circle cx="256.5" cy="68.5" r="5.5" fill="#162C29"/>
<circle cx="307.5" cy="43.5" r="5.5" fill="#162C29"/>
</svg>
