<svg viewBox="0 0 256 274" fill="none" xmlns="http://www.w3.org/2000/svg">
<path d="M178.89 25.2326C178.569 24.2702 177.927 23.6286 177.927 23.6286C177.927 23.6286 176.642 22.987 175.358 21.7039C174.394 20.7415 173.431 19.7791 172.467 18.8167C171.182 17.8543 170.219 16.2504 168.613 15.288C167.328 14.0048 165.723 13.0424 164.438 12.0801C163.153 11.1177 161.547 10.1553 160.584 9.51371C158.336 7.90974 156.409 7.58896 156.409 7.58896C155.445 7.26816 154.482 6.62658 154.482 6.62658C154.803 6.30579 152.876 5.3434 150.949 4.70181C148.701 4.38102 146.774 3.73944 146.774 3.73944C146.774 3.41864 145.81 3.09786 143.883 2.45627C141.956 1.81468 140.672 1.81468 140.672 2.13547C139.708 1.81468 132.321 0.852302 129.431 0.210716C128.467 -0.110077 127.182 0.210711 126.219 0.531504C126.219 0.852297 125.255 1.49388 124.292 1.49388C124.292 1.49388 124.292 1.17309 124.292 0.531504C125.255 -0.110082 125.255 -0.110077 123.328 0.210716C122.365 0.210716 121.08 0.210716 121.08 0.210716C121.08 0.531509 119.796 0.531507 117.547 1.17309C116.584 1.49389 114.978 1.49389 113.693 1.81468C112.088 2.13547 110.482 2.77705 108.876 3.09785C99.8832 5.98498 97.3139 8.23054 97.635 8.23054C97.9562 8.55134 96.9927 8.87213 94.1022 10.4761C88 12.7216 88.3212 13.0424 87.6788 14.0048C88.6423 13.3632 88.6423 13.684 88.9635 14.0048C89.6058 14.6464 88.6423 15.288 87.3576 15.288C87.3576 14.9672 86.3942 15.6088 85.1095 16.5712C83.8248 17.5335 82.5401 19.1375 81.2555 20.4207C79.6496 22.0246 79.0073 23.3078 78.0438 24.2702C77.0803 25.2326 76.7591 26.195 76.7591 26.5158L76.438 26.195C76.1168 25.8742 75.4744 26.5157 72.9051 28.7613C71.6204 29.7237 70.9781 30.3653 70.9781 30.3653C71.6204 31.0068 66.8029 33.5732 66.4817 33.2524C65.5182 33.2524 65.5182 33.2524 63.9124 34.2148C61.9854 36.1396 57.8102 37.4227 57.4891 36.7811C57.4891 36.7811 56.5255 37.1019 55.8832 37.4227C55.2409 38.0643 53.635 38.7059 52.6715 38.7059C51.3869 39.0267 50.4234 39.3475 49.781 39.3475C49.1387 39.6683 49.4598 39.6683 49.781 39.6683C49.781 39.9891 50.1022 40.6307 48.8175 40.6307V40.3098C48.8175 39.989 47.854 40.3099 46.5693 40.6307C45.927 40.6307 45.2847 40.9514 44.3212 41.2722C43.3577 41.593 42.7153 41.9138 41.7518 42.2346C36.9343 44.1594 35.0073 45.4426 34.0438 45.4426C34.0438 45.4426 34.0438 45.4425 33.4015 46.4049C32.7591 47.3673 31.7956 47.6881 31.4745 47.3673C30.511 47.6881 26.6569 49.9336 25.3723 51.5376C24.4088 52.1792 23.7664 52.8208 23.7664 52.8208C22.4818 52.8208 19.9124 54.7455 19.9124 56.3495C19.5912 56.0287 18.9489 56.6703 17.9854 57.6327C16.7007 59.2366 14.1314 62.7654 13.8102 62.4446C13.8102 62.4446 13.8102 62.4446 13.1679 63.407C12.8467 64.3693 12.2044 65.3317 11.562 66.2941C10.9197 67.2565 10.2774 68.2188 10.2774 69.1812C9.95621 70.1436 9.63504 71.106 9.63504 71.106C9.31387 72.0684 9.31387 70.7852 9.31387 69.8228C9.95621 67.8981 8.35037 70.4644 7.70803 73.6723C7.0657 76.8803 7.06569 76.8803 7.38686 74.6347C7.38686 73.3515 7.70803 72.3892 7.0657 74.3139C7.0657 74.3139 6.10219 76.2387 6.42336 76.2387L5.13868 79.1258C4.17518 81.0506 3.53285 82.013 3.21168 82.9753C3.21168 84.2585 3.21168 84.2585 2.56934 84.9001C2.24817 84.9001 1.927 85.8625 2.56934 86.1833C2.89051 87.4664 2.56934 88.4288 1.927 89.0704C0.963499 88.7496 0.963508 90.0328 1.28468 90.0328C1.60584 90.9952 1.28468 92.2783 1.28468 92.2783C1.28468 92.2783 0.963506 93.2407 0.642338 94.8447L0.321163 95.1655C0.321163 95.1655 0.32117 95.1655 0.642338 95.1655C0.32117 96.4487 0.321163 97.7318 0.321163 99.3358C0.321163 99.3358 0.321168 99.3358 0 99.3358C0 99.3358 -4.90542e-06 99.3358 0.321163 99.3358C-4.90542e-06 102.544 0.321165 106.714 0.963501 110.884C1.28467 111.847 1.60584 112.809 2.24818 112.809C3.21168 112.809 2.56934 112.809 2.56934 113.771C1.28467 115.055 1.92701 116.979 2.89052 115.696C3.53285 114.413 3.53285 114.413 3.21168 116.659C3.21168 117.621 3.21168 117.621 3.85402 118.583C4.17518 118.583 4.49635 119.546 4.17518 119.546C4.17518 120.508 3.85401 121.791 4.17518 121.791C4.17518 121.791 4.49635 122.754 4.17518 123.716C4.17518 124.678 4.49634 125.32 5.13868 125.962C6.74452 128.207 6.74452 129.17 5.78102 128.528C4.81752 127.886 6.10218 132.057 6.74452 132.698C7.06569 133.019 7.38686 133.019 7.38686 133.34C7.38686 133.34 7.38686 133.34 7.38686 133.661C7.06569 133.661 7.0657 134.623 7.0657 134.623C7.0657 135.585 7.06569 136.227 6.74452 136.227C6.74452 136.227 6.74452 137.189 7.38686 138.793C8.35036 140.397 7.70802 143.284 6.74452 143.926C6.74452 143.926 6.74453 143.926 7.0657 145.851C7.70803 146.813 8.02919 147.776 7.38686 147.776C7.06569 147.776 7.0657 147.776 7.0657 147.776C7.0657 148.096 7.38686 148.096 7.38686 148.417C6.74452 148.417 6.74453 149.059 6.10219 149.059L7.0657 149.379C7.0657 150.021 6.74452 150.342 6.74452 150.663C6.42335 150.663 6.42336 150.663 6.42336 150.663V150.983C6.10219 151.625 5.78102 151.946 5.45986 151.625C5.13869 151.625 5.13869 151.625 4.81752 152.267H5.13868C5.45985 152.267 6.10219 152.587 5.78102 153.229C5.45985 154.191 5.13869 154.833 4.81752 154.833C4.17518 155.475 3.53285 156.437 3.85402 156.758C3.85402 156.758 3.53285 157.72 2.89052 158.682C2.56935 159.645 2.24817 160.607 1.927 162.853C2.24817 164.136 1.92701 166.061 1.60584 166.061C1.60584 166.061 1.28467 167.986 1.60584 169.269C1.60584 171.514 1.60584 172.477 0.963501 172.477C0.642333 172.477 0.642333 172.477 0.963501 173.439C1.28467 173.439 1.28468 174.401 1.28468 175.685C1.28468 176.647 1.28468 177.93 1.28468 177.93C1.60584 177.93 1.60583 177.93 1.927 178.892C1.927 179.855 1.60583 183.063 1.927 184.025C2.56934 187.233 2.56934 187.233 2.56934 185.95C2.24817 184.988 2.89052 184.988 2.89052 186.912C2.89052 187.875 3.53284 191.083 4.17518 193.97C5.45985 197.819 5.78103 197.819 6.10219 197.819C6.10219 197.498 6.10219 197.498 6.42336 197.498C6.42336 197.498 6.74452 197.498 6.74452 197.819C6.74452 197.819 6.74452 198.14 6.74452 198.461V198.782V199.102C6.74452 201.348 7.0657 202.31 7.70803 201.99C8.0292 202.31 8.35036 202.631 8.35036 202.952C8.35036 202.952 8.35037 202.952 8.67153 203.273C8.67153 203.273 8.67153 203.594 8.9927 203.594C8.67153 203.914 8.9927 204.877 10.2774 206.481C10.2774 206.801 10.5985 206.801 10.5985 207.122C10.2774 207.443 10.2774 207.764 9.9562 207.764C10.2774 207.764 10.5985 207.764 10.9197 208.085C11.2409 208.405 11.562 209.047 11.8832 209.368C12.8467 210.009 13.8102 211.613 15.0949 213.217C16.3796 214.821 17.3431 216.425 17.3431 216.746C17.3431 216.746 17.3431 217.067 17.6642 217.067C17.9854 217.388 18.3066 217.708 18.9489 217.708C20.2336 217.708 21.1971 218.671 20.5547 219.312C19.9124 219.954 19.9124 219.954 21.1971 219.954C22.1606 220.596 26.0146 223.804 24.7299 223.804C24.4088 224.124 24.0876 224.445 24.0876 224.445C25.0511 224.766 26.0146 225.407 26.0146 225.407C26.3358 225.087 26.9781 225.728 29.5474 227.653C30.5109 228.295 31.7956 228.936 33.0803 229.899C34.6861 230.54 35.9708 231.182 36.9343 231.503C38.8613 232.465 41.7518 233.748 42.3941 234.39C43.3577 234.71 44.3212 235.352 46.5693 235.352C47.854 235.352 49.781 235.673 49.4599 235.994C49.4599 235.994 49.4598 235.994 50.1022 235.994C50.4233 236.314 50.7445 236.314 51.0657 236.314C52.6715 236.314 53.3139 236.635 53.3139 236.635C53.3139 236.956 53.9562 237.598 54.9197 237.598C54.9197 237.277 55.562 237.277 56.8467 237.598C56.8467 237.918 57.1679 237.918 57.4891 237.918C58.1314 238.239 65.5183 240.806 71.6204 244.976L71.2993 245.297C71.6204 245.297 71.6204 245.297 71.9416 245.297C78.0438 249.467 82.5401 254.6 82.8613 254.92C82.8613 254.92 83.5036 255.562 85.1095 257.166C85.7518 257.808 87.3576 259.091 87.3576 259.091C86.7153 259.732 91.2117 262.94 94.1022 263.903H94.4234C95.0657 264.544 95.708 264.865 96.6715 264.865C96.6715 264.865 96.9927 264.865 96.9927 265.186V265.507C96.3503 266.469 96.9927 266.469 97.635 266.148C98.5985 266.79 100.204 267.431 101.168 267.752C102.453 267.431 103.416 267.752 103.095 268.715C102.774 269.356 104.701 270.318 106.949 269.677C107.27 269.998 108.234 270.319 108.876 269.998L109.197 270.318C109.839 271.602 110.803 271.602 111.124 271.281C112.409 270.639 113.372 270.96 114.015 271.922C115.62 272.885 115.942 273.206 116.584 272.885C116.905 272.885 117.226 272.885 117.226 272.885C117.547 272.885 117.547 272.564 117.869 272.564C119.474 272.243 122.365 272.885 123.328 273.526C124.292 273.526 125.255 274.168 125.255 273.526C125.255 273.526 125.255 273.526 126.219 273.847C127.182 273.847 128.467 273.847 128.467 273.847C128.467 273.526 128.467 273.526 128.467 273.526C129.431 273.526 135.854 273.847 142.92 272.243C148.701 270.96 151.591 269.356 153.197 268.715C154.803 268.073 155.124 267.752 154.482 267.752C153.197 267.431 155.124 266.469 156.409 266.79C157.372 266.148 159.62 265.827 161.226 264.544C162.832 263.261 164.759 262.299 165.08 262.619C165.08 262.619 165.08 262.619 166.044 261.978C166.686 261.016 167.971 259.412 169.898 258.128C171.504 256.845 173.109 254.92 174.394 253.958C175.036 253.316 175.679 252.675 176.321 252.033C176.642 251.392 176.963 251.071 177.606 250.109C178.569 248.505 178.569 248.505 179.533 248.184C179.854 248.505 184.029 245.297 183.387 244.655C183.387 244.655 183.387 244.655 184.35 244.334C185.314 244.334 185.635 243.372 185.635 243.051C184.993 242.409 185.956 241.768 187.241 242.409C187.562 243.051 188.526 242.73 188.204 242.409C188.847 241.447 189.168 240.806 190.131 240.806C190.774 240.485 191.737 239.843 191.095 239.202C191.095 238.881 191.095 238.881 191.416 238.56C191.416 238.56 191.737 238.56 192.058 238.56L192.38 238.239H192.701C193.022 238.56 193.022 238.56 192.38 239.522C192.701 239.522 193.343 239.202 193.985 238.881C194.628 238.56 196.555 238.239 196.555 238.56C197.518 238.56 198.161 238.239 197.197 237.918C196.876 236.956 196.876 236.956 198.482 236.635C199.445 236.314 200.088 235.994 200.409 236.635C200.409 236.956 200.409 236.956 202.336 236.635C203.62 236.314 204.905 235.673 206.19 234.71C206.511 234.71 207.153 234.069 207.474 233.427C207.796 233.106 207.796 232.786 208.117 232.786C208.117 232.786 208.117 232.786 208.117 232.465C208.438 232.465 208.759 232.465 208.759 232.144H209.08C209.08 232.465 210.044 232.144 211.328 232.144C211.328 231.823 212.292 231.823 211.328 232.144C211.328 232.465 210.365 232.786 209.401 233.107C209.401 233.107 209.401 233.106 209.401 233.427C210.686 234.069 211.65 233.748 212.292 232.465C213.255 231.823 213.255 231.823 214.219 231.823C215.182 231.823 216.467 231.823 216.467 231.503C216.467 231.503 218.394 230.861 219.358 230.54C221.285 229.578 222.248 228.936 221.927 228.615C221.606 228.295 222.569 227.653 223.533 227.332C224.496 226.691 225.139 226.049 225.139 225.728C224.817 225.407 225.46 224.766 226.744 223.804C227.066 223.804 227.066 223.483 227.387 223.483C228.993 221.879 228.672 221.879 229.956 221.879C230.277 222.2 230.92 221.558 231.883 220.916C231.883 220.916 232.526 220.275 233.81 219.954C234.774 219.633 234.453 219.312 234.453 218.992C234.131 218.671 233.81 218.35 233.81 218.35L234.131 218.029C234.774 217.708 235.737 217.708 236.058 218.029C237.343 218.029 237.343 218.029 236.701 217.388C236.38 217.067 236.701 216.104 238.628 214.821C239.912 213.217 241.197 211.613 241.518 211.934C242.482 211.293 242.803 210.33 242.803 210.33C243.124 209.368 243.445 208.405 245.693 205.839C249.226 201.669 248.905 201.669 248.263 201.348C247.942 201.027 247.62 201.027 248.584 200.386C249.226 199.744 249.547 199.102 249.547 198.14C249.547 197.819 249.869 197.498 249.547 197.178C249.547 196.857 249.547 196.857 249.547 196.536C249.547 196.215 249.226 195.895 249.226 195.574C249.226 194.932 249.226 194.291 249.226 193.97C249.226 193.97 249.547 193.649 250.19 193.328C250.511 193.328 251.153 193.649 251.474 192.045C251.474 191.724 251.796 191.724 251.796 191.403C252.438 190.762 252.438 189.799 252.117 189.799C252.759 188.837 253.401 186.912 253.723 184.988C254.044 183.063 254.686 179.855 255.007 178.892C255.007 176.647 255.328 175.685 254.686 175.685C254.365 175.685 254.365 175.364 254.044 175.364C254.365 175.364 254.365 175.043 254.365 174.722C255.007 174.081 255.007 170.552 255.007 167.023C254.686 163.494 254.044 159.645 253.08 159.324C253.08 159.324 252.759 158.362 252.438 157.399C252.438 156.437 251.796 154.191 251.474 152.587C250.832 150.983 250.511 149.7 250.19 149.379C250.19 149.379 249.869 148.417 249.547 146.813C249.547 144.888 249.547 144.247 248.905 143.284C248.263 142.322 247.942 142.643 248.263 142.322C248.584 142.322 248.584 140.718 248.263 137.189C248.263 133.661 248.263 133.661 247.942 134.623C247.942 133.019 247.942 132.057 247.942 131.736C248.263 131.736 248.263 131.736 248.263 131.415C248.263 131.415 248.263 131.415 248.263 131.094H248.584C249.226 132.057 249.547 130.453 248.263 129.17C247.942 128.849 247.942 128.207 247.942 127.566H248.263C248.263 127.566 248.584 127.245 248.584 126.924C248.584 127.245 248.584 127.566 248.584 128.207C248.584 128.207 248.905 128.207 249.547 128.207C249.547 127.245 249.547 127.245 249.547 126.282C249.547 126.282 249.547 125.962 249.547 125.641C249.547 125.32 249.869 125.32 249.547 125.32C249.547 124.999 249.547 124.678 249.547 124.358C249.226 123.395 248.905 123.395 248.263 124.037C248.263 124.037 248.263 124.037 248.263 123.716C248.263 123.074 248.905 122.754 248.905 121.791C249.226 121.47 249.547 121.791 249.547 122.433C249.226 123.395 249.869 123.395 250.19 123.395C250.511 123.395 250.511 122.433 250.511 121.15C250.511 120.187 250.511 118.904 250.511 118.263V117.942C250.511 117.942 250.511 117.942 250.832 117.942C251.153 117.942 251.796 116.017 252.438 114.092C253.08 112.167 253.08 110.884 252.759 110.884C252.438 110.884 252.438 110.884 252.117 110.564C252.117 109.922 252.117 109.28 251.796 108.96V108.639C252.438 108.639 253.401 107.035 253.723 106.714C253.401 106.714 253.08 106.714 253.08 106.393C253.723 104.789 254.044 102.864 254.044 99.6566C254.044 97.7318 253.723 94.5239 254.044 93.2407C254.044 90.9952 253.723 90.0328 253.08 90.0328C253.08 90.0328 253.08 90.0328 252.759 88.108C253.08 87.1456 252.759 84.9001 252.117 84.9001C251.474 83.9377 251.474 82.9753 251.153 82.0129C251.474 79.7674 251.474 79.7674 250.511 81.0506C250.19 81.0506 250.19 82.3337 250.19 82.9753C250.19 82.6545 249.869 82.6545 249.869 82.3338C249.869 82.013 249.869 81.3714 249.869 81.0506C249.869 81.0506 249.869 81.0506 250.19 81.0506C250.832 79.7674 250.19 76.8803 249.226 76.8803C248.905 75.9179 248.905 75.9179 248.905 74.9555C249.226 74.9555 248.905 73.6723 247.62 73.3515C247.62 73.3515 247.62 73.3515 247.299 73.3515C247.299 73.3515 247.299 73.0308 246.978 73.0308C246.978 72.71 246.657 72.71 246.336 72.71C246.015 72.3892 246.015 71.7476 246.336 71.106V70.7852V70.4644C246.015 69.502 245.693 68.2188 245.372 67.5773C244.73 66.6149 244.088 65.6525 243.766 65.6525C243.124 65.9733 241.518 63.4069 241.197 62.4446C240.876 61.4822 240.234 60.5198 239.27 59.8782C239.591 59.5574 239.27 58.595 238.307 57.9535C238.307 57.9535 237.664 56.9911 237.985 58.2743C237.985 58.2743 237.343 57.9535 236.701 57.6327C236.701 56.9911 236.38 56.6703 236.38 56.9911C236.38 57.3119 236.38 57.3119 236.058 57.6327H235.737L236.058 57.9535C236.058 58.2743 235.737 58.2743 235.416 58.2743C235.095 58.2743 234.774 57.9535 234.453 57.6327C233.81 56.9911 233.168 55.7079 233.81 55.0663C233.489 55.3871 233.168 55.7079 233.168 55.7079C232.847 55.0663 232.526 54.4247 232.526 54.104C232.526 53.7832 232.204 53.4624 232.204 53.4624C231.562 52.1792 231.562 52.1792 231.562 52.1792C231.241 52.5 230.92 52.8208 230.92 52.8208C230.277 52.1792 229.314 51.5376 229.635 51.2168C229.956 50.896 229.956 50.896 228.993 50.2544C228.993 50.2544 228.029 49.6128 228.029 49.9336C227.387 50.5752 227.387 50.5752 227.066 49.6128C226.744 48.3297 225.781 47.6881 224.496 48.0089C224.175 48.6505 224.175 48.6505 223.533 47.3673C223.854 47.0465 223.212 46.0841 222.248 45.4426C222.248 45.4426 222.248 45.4425 221.927 45.7633C221.606 46.4049 220.642 46.0841 220 45.1217C220.321 44.8009 219.679 44.4802 218.394 44.1594C217.752 43.5178 217.109 42.8762 216.146 42.8762C215.825 42.8762 215.825 42.8762 215.825 42.8762C214.861 42.5554 214.54 42.2346 214.54 41.9138C214.861 41.2722 214.861 40.9514 213.577 41.593C212.292 41.593 212.613 41.593 210.686 40.6307C209.723 39.9891 209.723 39.9891 208.759 39.9891C208.759 40.3098 208.759 40.3099 208.759 40.6307C207.153 39.9891 205.547 39.3475 204.263 39.9891C203.942 39.9891 203.299 40.6306 202.978 41.593C202.336 43.197 202.336 45.1218 202.978 45.4426C203.299 45.7633 205.226 46.4049 205.547 46.0841C206.19 45.1217 206.511 44.1594 208.117 45.4426C209.401 46.0841 210.686 47.0465 211.971 47.3673C212.613 47.3673 213.577 47.0465 214.219 46.7257C214.54 47.0465 214.54 47.3673 214.861 47.3673C215.182 47.6881 215.182 48.0089 215.504 48.0089C215.504 48.9713 215.504 49.9337 216.146 50.5752C216.788 51.2168 217.109 49.2921 217.109 48.9713C217.752 49.2921 217.109 51.2168 218.073 50.896C218.073 50.896 219.036 49.9336 219.679 49.2921C220 49.2921 220 49.6128 220.321 49.6128C220.642 49.9336 220.963 49.9336 220.963 49.9336C220.963 50.5752 220.321 50.896 220.642 51.8584C220.963 52.1792 221.606 52.5 221.927 52.8208C222.569 53.1416 222.89 52.1792 223.212 51.8584C223.533 52.1792 223.854 52.1792 224.175 52.5C223.854 53.1416 223.533 53.4624 223.854 54.104C224.175 54.7455 224.818 56.0287 225.781 55.0663C224.496 56.6703 225.781 56.9911 227.066 56.6703C226.744 57.3119 227.387 57.9535 228.35 58.5951C229.314 59.2366 230.599 59.8782 230.599 60.199C228.993 58.5951 230.599 57.3119 231.562 59.5574C232.204 60.8406 233.168 61.803 234.131 63.0862C234.453 62.7654 234.453 62.1238 234.453 61.803C234.453 61.803 234.774 61.803 235.095 61.803L234.774 62.1238C234.453 62.4446 234.774 62.7654 235.416 63.407C235.095 63.7278 234.453 63.7278 234.453 64.6901C234.774 66.9357 236.701 65.9733 237.664 67.2565C238.628 68.5396 238.307 69.8228 237.985 71.106C238.949 70.4644 240.555 70.7852 241.197 71.4268C242.161 72.0684 240.555 72.3892 240.876 72.71L241.197 73.0308C240.876 73.0308 240.555 73.3515 240.555 73.6723C240.555 74.6347 241.197 75.5971 241.839 76.2387C242.482 76.8803 243.124 78.1634 244.088 78.1634C244.73 78.1634 245.051 78.1634 245.051 78.805C245.051 79.1258 245.051 79.7674 244.73 80.0882C244.088 80.409 244.409 80.409 244.73 81.0506C245.051 81.6922 246.015 82.3337 246.336 82.9753C246.657 83.6169 246.978 84.5793 247.299 85.5417C247.299 86.1833 246.657 87.1456 246.657 87.4664C246.657 87.7872 247.299 87.1456 247.299 87.4664C247.299 87.7872 247.299 87.7872 247.62 88.108L248.263 91.3159C248.263 91.9575 248.263 92.5991 248.584 93.5615C248.905 94.2031 249.226 94.8447 249.869 94.8447C248.584 94.8447 248.584 97.411 248.584 98.3734C248.584 99.015 248.905 99.3358 249.226 99.9774C249.226 100.298 249.547 100.619 249.547 101.261C249.547 101.581 248.584 101.261 248.263 101.902C247.942 102.223 247.942 102.865 247.942 103.506C247.942 104.148 248.263 104.789 248.584 105.431C248.905 105.752 249.226 105.752 249.547 105.752C248.263 105.752 249.226 107.356 249.226 107.997C248.905 108.96 246.336 107.356 246.657 108.639C246.978 109.922 247.942 109.922 249.226 110.243C249.226 110.564 249.226 110.564 249.226 110.884C249.226 111.205 249.226 111.847 249.226 112.167C248.905 112.167 248.584 112.488 248.584 112.488C249.226 112.809 249.547 112.809 249.226 113.451C249.226 113.771 248.905 114.413 248.905 114.734C248.905 114.734 248.905 114.734 249.226 114.734C248.905 115.375 248.905 115.696 248.584 115.696C248.584 115.696 247.942 116.659 247.299 118.263V118.583C246.657 118.583 246.336 120.187 246.657 120.508C246.336 121.47 246.015 121.791 246.015 121.791C246.015 122.112 246.015 122.433 246.015 122.433C244.088 123.716 246.336 124.358 246.657 123.395L246.336 122.754C246.657 122.754 246.657 123.074 246.657 124.358C246.336 124.678 245.693 124.999 245.372 125.32C244.73 125.962 244.409 127.245 245.051 127.886C245.693 128.849 244.088 130.774 243.766 130.453C244.409 131.094 245.051 130.774 245.693 130.453C245.693 131.415 245.693 132.057 246.015 132.057C246.015 133.019 246.015 133.019 245.372 133.019C245.051 133.019 244.73 133.34 244.73 133.981C244.409 134.302 244.73 134.302 244.73 134.623C244.73 135.265 245.051 135.906 245.372 136.869C245.693 136.869 245.693 137.831 245.372 138.793C245.372 138.793 245.372 139.435 245.693 140.077C245.372 140.077 244.73 140.077 244.73 140.718C244.409 142.001 244.73 143.605 245.051 145.209C245.051 145.209 244.73 143.926 245.372 143.926C245.693 143.926 245.693 145.53 246.015 145.851C246.015 146.172 246.336 146.492 246.336 146.813L246.015 147.134C246.015 148.417 246.336 150.021 246.978 150.983C247.299 151.304 247.299 151.304 247.62 151.304C247.62 151.625 247.942 151.946 247.942 152.267C248.263 152.908 248.263 153.55 248.584 154.191C248.263 154.191 247.62 153.229 247.299 152.908C247.62 153.871 248.263 155.154 247.942 156.116C247.62 156.758 246.336 157.079 245.372 157.079C246.657 157.399 247.942 157.399 249.226 158.041C249.226 158.362 249.226 158.682 249.226 158.682C249.869 159.645 249.869 159.645 250.19 160.286C250.19 160.607 250.19 160.607 249.869 160.928C249.226 160.928 248.263 160.607 247.942 160.928C247.299 161.249 248.263 162.211 248.584 162.532C248.905 162.853 249.547 162.853 249.869 163.494C250.19 164.136 250.19 164.778 250.19 165.74C250.511 167.344 250.19 169.91 251.153 171.514C251.474 171.835 252.117 171.835 251.796 172.477C251.474 173.118 250.511 173.118 250.19 174.081C249.226 175.364 248.905 177.609 249.547 178.892C249.547 179.213 250.832 179.855 250.511 180.176C250.19 180.817 248.905 179.855 248.584 180.817C248.584 180.817 249.869 181.138 249.547 182.1C249.547 182.421 249.547 182.742 249.547 183.063C249.547 183.384 249.547 183.704 249.547 184.025C249.226 184.025 249.226 184.025 248.905 184.346C248.584 184.988 249.226 186.912 247.942 187.233C247.62 187.233 247.62 187.554 247.299 187.875C247.942 187.554 248.905 187.554 249.226 187.554C249.226 187.875 249.226 187.875 249.226 188.195L247.299 187.554C246.978 188.516 247.299 191.083 246.978 191.724H247.299C246.978 192.687 246.657 193.328 246.336 193.97C246.015 194.611 246.015 195.574 246.336 195.894C246.015 195.894 245.372 196.215 245.051 196.215C243.766 196.857 242.803 197.498 244.088 197.819C244.409 197.498 244.088 197.178 244.088 196.857C244.088 196.536 244.409 196.857 244.73 197.178C244.409 197.819 244.088 198.461 244.088 199.423C243.445 199.102 243.124 198.782 242.482 199.423C242.161 199.744 241.518 200.706 241.518 201.348C241.197 201.99 242.482 202.31 241.839 203.273C241.518 203.914 241.197 204.235 240.555 203.914C240.555 203.594 240.234 202.952 239.912 202.952C239.591 202.952 240.234 204.877 239.912 206.16C239.27 206.481 238.949 206.801 238.949 207.122C238.307 206.801 237.664 206.481 236.701 207.122C236.38 207.443 235.737 208.405 235.737 208.726C235.737 208.405 238.949 208.085 238.307 208.726C237.664 209.368 236.701 210.009 236.058 210.651C235.737 210.972 235.737 211.293 235.416 211.293C235.416 211.293 235.416 211.293 235.095 211.613C234.774 211.934 234.774 211.934 234.453 212.255C234.131 211.934 233.81 210.972 233.489 210.972C232.847 210.651 232.847 211.934 232.847 212.255C232.847 212.576 233.168 213.859 232.526 213.859C231.883 213.859 231.562 213.217 231.241 212.897C231.883 213.217 231.562 215.463 231.241 215.784C230.92 216.425 230.599 216.746 229.956 217.067C229.314 217.067 229.314 216.746 228.993 216.746C228.672 216.746 227.066 217.708 227.387 218.35C227.708 218.671 227.708 218.992 227.708 218.992C227.387 218.992 227.387 219.312 227.066 219.312C226.744 219.633 226.745 219.633 226.423 219.954C226.423 219.633 226.744 217.067 225.46 217.708C224.496 218.029 225.139 219.633 223.854 219.633C222.569 219.633 222.248 220.596 221.927 221.879C221.606 222.841 221.606 222.52 220.963 222.52C220.642 222.52 220.321 223.162 220 223.483C220 223.804 220 223.804 220 224.124C219.679 223.804 219.679 224.124 219.358 225.087C219.036 225.087 218.715 225.087 218.715 224.766C218.394 224.445 216.788 222.2 216.788 223.804C216.788 224.445 217.109 225.087 216.146 225.407C215.504 225.407 215.504 224.766 215.182 224.445C214.861 224.124 214.219 224.445 213.898 224.445L214.54 225.728C214.861 225.728 215.504 225.728 215.825 226.049C216.467 226.691 214.54 227.011 214.54 227.332C213.577 227.653 213.577 226.691 212.613 226.691C212.292 226.691 210.686 226.37 210.686 226.691C210.365 227.332 211.007 227.653 210.044 227.974C209.401 228.295 209.08 227.974 208.759 228.615C208.438 229.578 205.226 230.219 204.263 230.219C203.299 230.219 203.62 229.899 202.978 229.578C202.657 228.936 201.372 229.578 200.73 229.578C200.088 229.257 198.803 229.578 198.803 230.54C198.803 231.182 198.161 231.182 197.839 231.182C197.518 231.182 197.518 231.823 197.197 232.144C196.555 232.465 195.912 232.465 194.949 232.786C194.628 232.786 194.307 233.748 193.985 234.71C193.664 235.031 193.664 235.031 193.664 235.031C193.664 234.71 193.022 234.71 192.38 234.71C192.701 234.069 192.701 233.106 191.737 233.427C190.774 233.748 189.81 234.39 188.847 235.031C187.883 235.673 187.562 235.994 187.562 236.956C187.562 236.956 187.241 236.956 187.241 237.277V237.598C186.92 237.918 186.92 237.918 186.599 237.918C185.956 237.918 185.314 238.239 184.672 238.56C184.35 238.56 184.029 238.56 184.029 238.881V238.56C183.387 238.56 183.387 238.881 183.387 239.202C183.066 239.202 182.745 239.522 182.423 239.522C182.102 239.843 181.139 240.164 180.818 239.843C180.496 239.202 179.212 239.202 178.89 239.522L179.854 240.806C178.89 241.447 178.248 240.806 177.606 241.768C176.963 242.41 176.642 243.693 176.963 244.655C176.642 244.976 176.642 245.297 176.642 245.297C176.642 245.297 176.642 245.297 176.642 245.617C176.321 245.938 176 245.938 175.679 245.938C174.715 246.259 173.431 246.259 173.109 247.542C173.109 248.505 172.467 249.788 171.182 250.429C170.861 250.75 169.255 249.788 169.255 250.429C169.255 251.392 169.898 251.392 170.219 251.713C169.898 252.033 169.898 252.354 169.577 252.996C168.934 252.675 168.292 250.429 167.328 251.713C166.365 252.354 167.971 252.675 167.65 253.316C167.007 254.279 165.401 254.92 164.438 255.562C163.474 256.204 161.869 256.524 160.584 257.166C159.299 257.487 158.015 258.449 157.051 259.091C156.409 259.732 156.73 260.374 156.409 261.016C155.766 262.619 155.766 261.015 155.445 260.695C154.803 260.374 153.518 261.978 153.197 262.619C153.197 263.261 153.197 263.582 152.876 263.582H152.555C152.234 263.582 151.912 263.261 151.591 262.619C151.591 262.619 151.591 263.261 151.591 263.903C151.27 263.903 150.949 264.223 150.628 264.223C150.628 264.223 150.628 263.903 150.307 263.903C149.664 263.261 148.701 264.223 148.38 264.544C148.38 264.544 148.058 264.865 147.737 264.865C147.095 265.186 146.131 265.186 145.489 265.507C145.489 265.507 145.168 265.186 145.168 264.865C145.489 262.619 143.241 265.827 142.599 265.827C140.993 266.469 140.672 262.299 139.708 264.223C139.708 264.865 140.672 265.827 141.314 266.469C140.672 266.469 140.35 266.79 140.029 266.79C139.066 267.111 138.745 267.111 138.745 267.431C138.102 267.431 137.781 267.431 137.46 266.79C136.818 266.79 135.533 267.431 135.212 266.469C135.212 266.79 135.533 267.431 135.533 268.073C135.533 268.073 134.248 268.073 133.285 268.073C132.963 268.073 132.642 267.752 132.642 267.752C132 267.752 131.358 267.431 130.715 267.431C131.358 267.111 132 266.79 131.679 266.148C131.036 264.865 130.073 265.186 129.752 266.148C129.109 267.752 125.577 266.79 125.577 265.186C125.577 265.507 125.577 266.79 125.255 266.79C124.934 266.79 124.292 266.79 123.65 267.111C123.328 267.111 123.328 267.111 123.007 267.111C122.365 265.507 117.869 265.186 116.905 264.865C115.62 264.544 114.336 264.865 113.051 265.186C112.73 265.186 112.409 265.186 112.409 264.865C112.73 264.544 112.73 264.223 112.73 264.223H111.766C111.445 264.223 111.766 264.223 111.766 263.582C111.766 262.619 111.124 261.978 110.482 263.261C110.482 263.582 110.482 263.582 110.161 263.903C109.839 263.903 109.518 263.903 108.876 263.582C108.555 263.582 107.912 263.582 107.591 263.582C107.27 263.261 107.591 262.94 107.27 262.94C106.628 262.619 105.664 262.299 105.022 261.978C104.701 261.657 104.38 261.978 104.058 262.299C103.416 261.978 102.774 261.657 102.453 261.978C102.131 261.336 102.131 260.695 101.81 260.374C101.489 259.732 100.847 259.412 101.168 260.374C101.168 260.695 101.168 260.695 101.168 261.016C100.847 260.695 100.204 260.374 99.562 260.053C99.562 259.732 99.2409 259.412 99.2409 259.412C99.2409 259.412 99.2409 258.449 98.9197 258.449C98.9197 258.449 98.9197 259.091 98.5985 259.732C98.2774 259.412 97.9562 259.412 97.635 259.091C97.635 258.449 97.635 257.808 97.635 257.808C97.3139 255.562 96.9927 257.166 96.9927 258.77C96.6715 258.449 96.3504 258.449 96.0292 258.128C95.708 257.487 95.708 257.166 95.0657 257.808C95.708 256.845 91.5328 253.958 90.8905 253.316C89.927 252.675 88.9635 252.354 88.3212 251.713C87.6788 251.392 88.3212 249.788 87.6788 249.788C87.3577 249.788 86.7153 249.788 86.073 249.788C86.073 249.788 85.7518 249.788 85.7518 249.467C86.7153 249.146 88.9635 248.184 87.3576 248.184C86.3941 248.184 85.7518 247.221 84.7883 247.863V247.542C84.7883 246.901 84.7883 246.58 84.4672 246.259C84.4672 245.938 84.4671 245.297 84.146 244.976C83.8248 244.655 83.5037 244.976 82.8613 245.297C81.8978 244.655 80.9343 244.013 80.292 243.372C80.9343 242.41 81.5766 241.768 81.8978 241.447C80.6131 241.768 79.6496 242.089 78.365 242.409C77.7226 242.089 77.4014 242.089 77.4014 242.089C77.4014 241.447 77.7226 240.806 77.4014 240.164C76.7591 241.126 76.1168 239.843 75.4744 239.843C75.1533 239.843 74.8321 239.843 74.1898 239.843C73.8686 239.522 73.5474 239.522 73.5474 239.202C73.8686 238.239 74.5109 237.598 72.9051 237.598C71.2993 237.277 71.2993 236.956 71.9416 235.673C71.2993 235.352 71.2993 235.994 70.6569 236.314C70.0146 236.635 69.0511 235.673 68.4088 235.673C68.0876 235.673 68.0876 235.673 68.0876 235.994C67.1241 235.352 66.8029 235.352 66.4817 235.673C66.4817 235.994 66.4817 235.994 66.1606 235.994C66.1606 235.673 65.1971 235.031 63.9124 234.39C64.2336 234.069 64.5547 233.748 64.8759 233.748C65.1971 233.427 65.5182 234.069 65.8394 233.427C64.5547 232.786 63.5912 233.427 62.9489 234.069C62.6277 233.748 61.9854 233.748 61.6642 233.427C61.9854 233.106 62.3066 233.107 62.3066 233.107H61.0219C60.7007 233.107 60.3796 232.786 59.7372 232.786C59.0949 231.823 57.4891 231.182 57.4891 232.465C57.1679 232.465 57.1679 232.465 56.8467 232.465C57.1679 232.144 57.1679 231.503 57.1679 231.503C57.1679 230.861 56.5255 231.182 56.2044 231.182C55.562 231.182 55.2409 231.503 54.9197 232.144C54.5985 231.823 53.9562 231.503 52.6715 231.182C52.3504 229.899 51.3869 230.219 51.0657 230.861C51.0657 230.219 51.0657 229.257 50.1022 228.936C50.1022 229.257 49.781 229.899 49.781 230.54H49.4599C49.1387 230.54 48.8175 230.54 48.4963 230.219C48.4963 229.578 48.4964 228.615 47.5329 228.295C46.8905 227.974 46.2482 228.615 45.6058 228.295C45.927 227.332 43.0365 226.37 42.3941 226.049C41.4306 225.728 42.073 227.653 41.7518 227.653C41.7518 227.653 41.4307 227.653 41.4307 227.332C41.1095 226.691 41.4307 225.087 41.4307 224.766C41.4307 224.124 40.146 223.483 39.8248 223.483C38.5401 223.162 37.5766 222.52 36.292 222.2C35.9708 222.2 33.4015 221.879 33.4015 221.558C33.4015 221.237 36.6131 220.275 35.9708 219.954C35.3285 219.954 31.7956 218.992 31.1533 219.633C31.7956 218.671 31.4744 218.029 30.8321 217.388C30.1898 216.746 29.5474 216.425 28.9051 216.104C28.2628 215.784 27.9416 216.104 27.2993 216.104C25.6934 215.463 26.0146 213.538 25.3723 212.255C25.3723 211.934 25.0511 211.934 24.7299 212.255C24.4088 211.934 24.0876 211.293 23.7664 210.972C23.1241 210.33 22.1606 210.009 21.5182 209.368C20.8759 208.726 20.8759 208.085 20.5547 207.122C20.5547 206.801 20.2336 205.839 19.5912 205.839C18.6277 205.839 17.6642 203.273 17.0219 202.31C16.7007 201.99 14.4526 200.065 14.4526 200.065C14.4526 199.744 15.7372 200.065 15.7372 200.065L14.4526 199.102C14.4526 199.102 13.8102 199.102 13.1679 198.782C13.1679 198.461 12.8467 198.461 12.8467 198.14C13.1679 198.14 13.4891 197.819 13.4891 197.498C13.4891 196.857 13.1679 196.215 13.1679 195.574C12.5255 194.932 11.2409 193.97 12.8467 193.649C12.5255 193.649 11.562 193.328 11.2409 193.328C11.8832 192.687 11.8832 192.045 11.562 191.083C11.562 190.441 11.2409 189.799 10.9197 189.479C10.5985 189.158 10.2774 189.479 10.2774 189.158C9.95621 187.875 10.5985 187.554 10.2774 186.271C10.2774 185.629 9.31387 183.063 10.5985 183.063C10.2774 181.78 9.31387 183.063 8.67153 182.421C8.35037 182.1 9.31387 181.459 9.63504 181.138C9.9562 180.817 9.9562 180.496 9.9562 180.176C10.2774 179.213 8.0292 175.685 9.31387 175.685C8.9927 175.685 8.35037 175.685 7.70803 175.364C7.70803 175.043 7.70803 174.722 7.70803 174.401C7.70803 174.401 7.70803 174.401 8.0292 174.401C8.35036 174.401 8.35036 173.76 8.35036 173.76C8.67153 173.118 8.67153 172.797 8.67153 171.835C8.67153 171.514 8.67153 171.193 8.9927 171.193C9.63503 170.873 10.5985 171.835 10.9197 171.514C11.2409 171.193 9.9562 169.589 9.9562 169.269C9.9562 167.986 10.9197 166.702 11.562 165.74C12.2044 164.457 8.02919 164.778 9.9562 163.494C10.9197 162.853 11.8832 162.532 11.8832 161.249C11.8832 160.607 9.9562 159.003 11.562 159.003C13.489 159.324 12.5255 157.399 11.8832 156.437C11.2409 154.833 12.8467 154.833 13.4891 153.55C13.8102 152.908 13.1679 152.587 12.2044 152.587C12.2044 152.267 12.5256 151.625 12.5256 150.983C12.8467 150.663 12.8467 150.663 12.8467 150.342C12.8467 150.342 12.8467 150.342 12.5256 150.342C12.5256 150.021 12.5256 149.379 12.5256 149.059C13.1679 149.059 13.8102 149.7 14.1314 148.417C15.0949 146.492 15.0949 143.605 14.4526 141.68C14.1314 141.039 14.1314 141.039 14.1314 140.077C12.8467 138.793 16.0584 139.756 16.0584 139.435C16.0584 138.152 13.1679 138.793 14.7737 137.189C14.7737 136.869 14.7737 136.548 14.4526 136.227C14.4526 135.265 11.8832 130.453 13.1679 130.132C12.5255 129.811 11.8832 129.17 11.2409 128.849C11.2409 128.528 11.2409 128.528 11.2409 128.207C11.8832 127.886 11.8832 126.924 11.8832 126.282C11.8832 125.32 12.5255 125.32 13.1679 124.678C12.8467 123.074 9.63504 122.754 9.63504 122.112C9.9562 122.112 12.2044 121.791 12.2044 121.471C12.2044 120.508 10.9197 119.546 10.2774 119.867C9.63504 119.867 9.31387 120.829 8.9927 120.187C8.67153 119.546 8.9927 119.546 9.31387 118.904C9.95621 118.263 11.2409 118.583 11.8832 117.942L10.5985 117.621C9.9562 117.3 9.63504 116.979 9.63504 116.338C9.31387 115.696 9.9562 115.696 9.63504 115.375C8.9927 115.055 8.67153 114.734 8.0292 114.734C7.38686 114.413 9.31387 113.771 8.67153 113.13C8.35037 112.809 7.70803 112.809 7.38686 112.488C7.06569 112.167 7.0657 111.526 7.0657 111.205C7.38686 112.488 8.9927 113.771 8.67153 111.847C8.67153 110.884 8.0292 109.28 7.0657 109.601C8.9927 109.28 8.0292 104.148 7.70803 102.544C7.70803 101.581 7.06569 101.581 6.42336 101.581C6.42336 101.261 6.42336 100.94 6.10219 99.9774C7.70803 99.3358 8.67153 96.7694 8.67153 95.4863C8.67153 94.5239 8.99269 93.5615 8.35036 92.9199C7.38686 91.9575 7.06569 91.3159 7.38686 90.0328C7.06569 91.6367 8.35037 92.2783 8.67153 90.6744C8.9927 89.3912 9.31387 88.108 9.63504 86.5041C9.9562 85.2209 9.95621 84.2585 9.31387 83.2961L8.9927 82.9753C9.63503 83.6169 9.95621 83.9377 10.9197 83.9377C11.562 83.9377 12.2044 82.9753 11.562 82.6545C10.9197 82.3338 11.562 81.3714 11.8832 80.7298C11.8832 80.409 11.2409 80.0882 10.9197 79.7674C10.5985 79.1258 11.8832 79.1258 12.2044 78.805C12.5255 78.4842 12.8467 78.1634 13.1679 77.5219C13.489 76.8803 13.489 76.2387 13.1679 75.9179C12.8467 75.5971 13.1679 74.9555 13.4891 74.3139C14.4526 74.6347 14.4525 75.2763 14.7737 73.9931C14.7737 73.3515 15.0949 72.71 15.0949 71.7476C15.0949 71.7476 15.0949 71.4268 15.0949 71.106C15.0949 71.106 15.0949 70.7852 15.4161 70.7852C15.4161 71.106 15.4161 71.4268 16.0584 71.4268C16.7007 70.4644 16.3796 70.4644 16.0584 69.8228C16.0584 69.1812 16.0584 67.8981 17.0219 68.2189C18.3066 68.5396 17.9854 69.1812 18.9489 68.2189C19.5912 67.8981 20.5547 67.2565 21.1971 66.6149C21.8394 65.9733 20.8759 65.9733 20.5547 65.6525C20.2336 65.3317 20.2336 64.3693 20.8759 64.3693C21.1971 64.3693 22.4818 63.7278 22.1606 63.0862C23.7664 64.3693 24.7299 61.1614 25.3723 60.5198C26.0146 59.8782 26.0146 60.199 26.6569 59.8782C27.2993 59.5574 27.9416 58.9159 28.5839 58.5951C28.9051 58.2743 31.7956 55.3871 32.7591 56.3495C33.7226 55.7079 33.7226 55.3871 33.0803 54.4247C32.7591 54.1039 32.7591 52.8208 33.4015 52.5C33.4015 52.5 34.6861 53.7832 35.0073 53.7832C35.9708 54.104 36.6131 53.4624 36.9343 52.8208C37.2555 52.1792 37.8978 51.5376 38.219 51.2168L39.1825 51.8584C40.4671 51.8584 39.1825 49.2921 39.8248 48.6505C41.1095 48.0089 40.7883 50.5752 41.7518 50.5752C43.3577 50.5752 44.3212 48.0089 45.2847 47.0465C45.6058 46.7257 48.1752 45.4425 47.2117 46.7257C45.927 47.0465 45.927 48.0089 47.2117 48.0089C47.854 48.0089 49.1387 47.3673 48.8175 46.7257C48.8175 46.4049 47.5328 45.7633 47.854 45.4426C47.854 45.4426 51.0657 47.6881 51.0657 46.7257C51.0657 46.0841 50.7445 45.4425 50.7445 44.801C50.7445 44.1594 51.3869 43.8386 51.708 43.5178C51.708 43.5178 51.708 43.5178 52.0292 43.5178C52.3503 44.8009 52.3504 45.4425 53.9562 45.1217C54.2774 45.1217 56.5256 43.8386 55.562 43.197C55.8832 43.197 56.5255 42.8762 56.8467 42.8762C57.1679 43.5178 56.8467 44.1594 57.4891 44.4802C58.1314 44.801 59.0949 44.801 59.4161 44.4802C60.7007 43.5178 60.0584 40.9514 61.9854 42.8762C62.9489 45.1217 62.9489 41.9138 63.9124 41.593C64.5547 41.2722 66.1606 42.2346 66.4817 41.593L66.8029 39.6683C67.7664 40.3099 67.1241 40.9514 68.4088 40.6307C69.0511 40.6307 70.0146 40.3099 70.0146 39.6683C70.0146 39.0267 70.9781 38.7059 71.6204 38.3851C71.9416 38.0643 71.2993 36.7811 72.2628 36.1395L71.2993 35.8188C71.2993 35.1772 71.2993 34.5356 71.9416 34.5356C72.2628 34.8564 72.9051 35.8188 72.2628 36.1395L73.2263 37.4227C73.5474 37.1019 74.5109 36.7811 73.8686 36.1395C73.8686 35.1772 74.1898 35.1772 75.1533 35.1772C75.7956 34.8564 75.7956 34.5356 75.1533 34.2148C74.8321 33.5732 75.4744 32.9316 75.7956 32.6108L77.4014 34.5356C76.7591 33.894 78.365 32.29 79.0073 31.6484C79.6496 31.0069 80.292 31.6484 80.9343 31.3277C83.8248 29.7237 86.073 27.1573 88 24.9118C88 24.9118 88.6423 25.2326 88.9635 24.9118C89.2847 24.591 89.6058 24.2702 89.927 23.9494L93.1387 20.4207C94.4233 18.8167 96.6715 17.5335 97.9562 15.9296C98.5985 15.288 99.2409 14.6464 99.562 14.0048C99.562 13.3632 100.526 13.3632 100.847 13.0424C100.526 13.3632 100.204 14.0048 100.847 13.684C102.131 13.3632 103.095 12.4009 104.38 12.0801C105.022 11.7593 106.307 11.4385 106.628 10.7969C106.628 10.4761 105.985 9.51372 105.664 8.87213C105.985 8.87213 105.985 8.55133 106.307 8.55133C106.949 8.87213 107.27 9.51371 107.591 10.1553C108.234 11.1177 108.876 10.4761 109.839 10.1553C111.124 9.8345 112.409 9.19292 114.015 9.19292C114.336 9.19292 114.657 9.51371 114.657 9.51371C115.299 9.19292 115.62 8.55134 115.942 8.23054C116.905 7.26816 118.832 8.23054 119.796 8.55133C121.08 8.55133 121.401 7.58896 121.723 6.62658C122.686 4.70182 122.686 7.58895 122.686 7.90974C123.007 8.87212 124.292 6.94737 124.613 6.62658C125.577 5.6642 126.219 7.58895 126.861 7.90974C127.825 8.55133 129.109 8.23054 130.073 8.23054C130.394 8.23054 131.358 7.90974 132.321 7.90974C133.285 7.90974 133.927 8.23055 133.927 8.87213C134.569 9.19293 135.533 8.87213 136.175 8.87213C137.46 8.55134 139.066 8.87213 140.35 9.19292C141.635 9.51371 143.241 9.51372 144.526 9.83451C145.489 9.83451 146.774 9.83451 147.095 8.87213C146.774 9.51372 146.453 10.4761 146.774 11.1177C147.095 11.7593 147.737 11.1177 148.058 11.4385C148.38 11.7593 148.701 11.7593 148.701 12.0801C149.664 13.0424 150.949 13.684 152.234 14.3256C152.555 14.3256 153.518 14.3256 154.161 14.6464C154.803 14.9672 155.445 15.288 155.445 15.288C156.088 14.6464 156.73 14.0048 157.051 13.3632C158.015 13.684 158.657 14.0048 158.657 14.0048C158.657 14.3256 158.336 14.6464 157.693 14.6464C156.088 15.288 156.409 15.9296 157.693 16.892C158.015 17.2128 158.978 17.8543 159.62 17.5335C160.263 17.5335 160.263 16.892 160.584 17.5335C160.905 18.1751 161.547 21.0623 160.905 21.3831C161.869 20.7415 162.19 21.0623 163.153 22.0246C163.796 22.6662 164.438 23.3078 165.723 23.6286C166.044 23.6286 167.328 23.6286 167.328 23.9494C167.328 24.2702 167.007 25.2326 167.007 25.5534C167.328 26.195 168.292 26.195 168.934 26.5158C169.577 27.1573 170.219 27.7989 170.54 28.4405C170.54 30.0445 172.146 28.7613 172.467 28.4405C173.109 28.1197 173.431 28.4405 174.073 28.7613C173.109 30.0445 172.467 30.0445 173.752 31.3277C175.679 33.2524 177.927 34.8564 180.496 36.4603C180.496 36.4603 183.066 38.3851 183.066 37.4227C183.066 36.1396 184.35 37.1019 184.672 37.4227C184.993 38.0643 184.35 38.3851 184.672 38.7059C184.993 39.0267 185.314 39.3475 185.635 39.3475C186.277 39.6683 188.204 40.9514 188.847 40.6307C189.489 40.3099 190.131 40.9514 190.774 40.9514C191.416 40.9514 192.058 40.3098 192.38 40.3098C192.701 40.3098 192.701 41.2722 192.701 41.593C193.343 42.5554 193.985 42.8762 194.949 43.197C196.234 43.5178 197.839 43.8386 199.445 43.8386C200.088 43.8386 200.73 43.5178 200.73 42.8762C201.372 42.5554 201.372 41.593 200.73 40.9514C200.73 40.9514 201.051 40.9514 201.372 40.9514C201.372 40.9514 201.372 40.6306 201.693 39.9891C202.015 39.0267 202.015 38.7059 200.409 38.0643C197.197 36.7811 194.949 35.498 194.628 36.4603C194.628 36.4603 193.664 36.4603 192.701 36.1395C191.737 35.8188 191.095 35.1772 191.095 35.1772C191.416 34.8564 188.204 33.5732 184.35 31.0069C181.139 27.7989 179.533 26.195 178.89 25.2326ZM236.701 214.821C236.701 214.501 236.701 214.501 237.022 214.501L237.343 214.18L236.701 214.821ZM249.226 159.324C249.547 159.324 249.547 159.324 249.547 159.645C249.547 159.645 249.547 159.645 249.547 159.966C249.547 159.966 249.547 159.966 249.226 159.966C249.226 159.645 249.226 159.645 249.226 159.324ZM253.401 174.722V174.401C253.723 174.722 254.044 174.722 254.044 174.722C254.044 176.005 254.044 175.685 253.401 174.722ZM251.796 87.4664C251.796 87.4664 251.796 87.1457 251.474 87.1457V86.8248C251.796 87.1456 251.796 87.1456 251.796 87.4664ZM251.153 84.5793C251.474 85.2209 251.474 85.8625 251.474 86.1833C251.474 85.8625 251.153 85.5417 250.832 85.5417C250.832 85.2209 250.511 84.9001 250.511 84.5793C250.511 84.2585 250.832 84.2585 250.832 83.9377C251.153 84.2585 251.153 84.2585 251.153 84.5793ZM229.635 52.5C229.314 52.5 229.314 52.5 228.993 52.1792C228.993 51.8584 229.314 52.1792 229.635 52.5ZM221.285 46.7257C220.963 46.7257 220.963 46.7257 220.963 46.7257C220.642 46.7257 220.642 46.4049 220.321 46.4049C220.642 46.4049 220.963 46.4049 221.285 46.7257ZM232.526 57.6327C233.168 57.9535 233.489 58.5951 234.131 58.9158C234.131 58.9158 234.131 58.9158 233.81 59.2366C233.81 59.2366 233.81 59.2366 233.489 59.2366C233.168 58.5951 232.847 57.9535 232.526 57.6327ZM248.905 110.243C248.905 109.922 248.905 109.922 248.905 109.922C248.905 109.922 249.226 109.922 249.226 110.243C249.547 110.564 249.226 110.884 248.584 111.205C248.905 110.884 248.905 110.564 248.905 110.243ZM246.657 150.342C246.978 150.663 247.299 150.983 247.62 151.304C247.62 151.625 247.62 151.946 247.299 152.267L246.978 151.946C246.978 151.304 246.657 150.663 246.657 150.342ZM248.905 165.419C249.226 164.778 250.19 164.136 250.511 165.098C250.511 166.382 249.226 166.382 248.905 165.419ZM244.409 198.782C244.73 198.461 244.73 198.782 244.409 199.102H244.088C244.088 198.782 244.088 198.782 244.409 198.782ZM223.533 219.954C224.175 219.954 224.496 220.275 224.817 220.916C224.817 220.916 224.817 220.916 224.817 221.237C224.817 221.237 224.818 221.237 224.496 221.558C224.496 221.558 223.854 221.879 223.533 222.52C222.89 221.558 221.927 219.954 223.533 219.954ZM201.372 231.182H201.051C201.051 231.182 201.051 230.861 201.372 231.182C201.372 230.861 201.051 230.861 201.372 231.182ZM77.7226 25.8742C77.7226 25.8742 77.7226 26.195 77.7226 25.8742C77.4014 26.5158 77.0803 26.8365 77.0803 27.1573C77.0803 27.1573 76.7591 27.1573 76.438 27.1573C76.438 26.8365 76.7591 26.5157 76.7591 26.195C77.4015 25.5534 77.4014 25.5534 77.7226 25.8742ZM1.927 105.11C1.927 105.431 1.927 105.752 1.927 106.072C1.927 106.393 1.92701 106.714 2.24818 107.035V107.356C1.92701 107.356 1.60584 106.393 1.60584 106.393C1.60584 105.11 1.60583 105.11 1.927 105.11ZM1.28468 93.5615C1.28468 92.5991 1.28468 92.5991 1.28468 92.5991C1.60584 92.5991 1.927 92.5991 1.927 93.2407C1.927 93.5615 1.60584 93.5615 1.28468 93.5615ZM1.927 94.2031L1.60584 94.5239V94.2031H1.927ZM84.146 250.429C84.4671 250.429 84.4671 250.429 84.146 250.429V250.429ZM91.2117 261.016C90.2482 260.374 90.2482 260.374 90.2482 260.374C90.5693 260.053 90.8905 259.732 91.5328 260.374L92.1752 261.016C92.4963 261.336 91.2117 261.016 91.2117 261.016ZM190.774 235.352C190.774 235.352 190.774 235.673 190.774 235.352C190.774 235.673 190.774 235.352 190.774 235.352ZM131.358 269.035L132 269.356V269.677L131.358 269.998C130.394 269.998 130.394 269.998 130.394 269.998C130.394 269.356 130.394 269.035 131.358 269.035ZM44 228.936C44 228.615 44 228.615 44 228.936C43.3577 228.615 43.0365 228.615 42.3941 228.295C43.0365 227.974 43.6788 228.295 44 228.936ZM15.0949 202.631C15.4161 202.952 15.7372 203.914 15.0949 204.235C15.0949 203.914 14.7737 203.914 14.7737 203.594C14.4525 203.273 14.4526 202.952 14.1314 202.631C14.4526 201.99 14.7737 201.99 15.0949 202.631ZM6.42336 177.289C7.06569 177.93 6.74453 178.572 6.10219 177.93C6.10219 177.609 6.10219 177.289 6.42336 176.968C6.42336 176.968 6.42336 176.968 6.42336 177.289ZM5.45986 100.94C5.45986 100.94 5.78102 100.94 5.45986 100.94C5.78102 100.94 5.78102 100.94 5.45986 100.94C5.78102 100.94 5.78102 100.94 5.45986 100.94ZM30.1898 56.0287C29.5474 56.0287 29.2263 55.7079 28.9051 55.3871C29.5474 54.4248 30.1898 54.7455 30.8321 55.7079C30.5109 55.7079 30.1898 55.7079 30.1898 56.0287ZM164.438 21.3831C163.796 21.0623 163.474 20.0999 164.438 19.7791C165.08 19.4583 165.401 20.0999 166.044 20.7415C165.723 21.0623 165.08 21.7038 164.438 21.3831ZM176.642 31.9692C176.642 31.3276 176.963 30.6861 177.285 30.3653C177.606 30.6861 177.927 31.0069 178.248 31.3277C177.927 31.6484 176.642 32.6108 176.642 31.9692ZM180.818 33.5732C180.496 33.2524 180.175 32.9316 180.175 32.29C180.817 32.29 181.46 32.6108 182.102 32.9316C181.781 33.2524 181.46 33.894 180.818 33.5732ZM197.197 37.1019C199.124 36.7811 198.803 37.7435 196.876 38.0643C196.555 38.3851 196.234 38.3851 196.234 38.3851C196.234 38.3851 196.234 38.0643 195.912 38.0643V37.7435C196.234 37.1019 196.234 36.7811 197.197 37.1019Z" fill="#162C29"/>
<circle cx="80.646" cy="115.03" r="5.5" fill="#162C29"/>
<circle cx="122.646" cy="81.0303" r="5.5" fill="#162C29"/>
<circle cx="189.646" cy="121.03" r="5.5" fill="#162C29"/>
<circle cx="80.646" cy="172.03" r="5.5" fill="#162C29"/>
<circle cx="136.646" cy="132.03" r="5.5" fill="#162C29"/>
<circle cx="157.646" cy="183.03" r="5.5" fill="#162C29"/>
</svg>
