<svg width="35" height="35" viewBox="0 0 35 35" fill="none" xmlns="http://www.w3.org/2000/svg">
<path d="M35 16.625L23.8 15.575C23.275 15.575 22.925 14.875 23.275 14.35L30.45 5.775L29.225 4.55L20.65 11.725C20.125 12.075 19.6 11.725 19.425 11.2L18.375 0H16.625L15.575 11.025C15.575 11.55 14.875 11.9 14.35 11.55L5.775 4.55L4.55 5.775L11.55 14.35C11.9 14.875 11.55 15.4 11.025 15.575L0 16.625V18.375L11.2 19.425C11.725 19.425 12.075 20.125 11.725 20.65L4.725 29.225L5.95 30.45L14.525 23.275C15.05 22.925 15.575 23.275 15.75 23.8L16.625 35H18.375L19.425 23.8C19.425 23.275 20.125 22.925 20.65 23.275L29.225 30.45L30.45 29.225L23.275 20.65C22.925 20.125 23.275 19.6 23.8 19.425L35 18.375V16.625Z" fill="#A0AEAA"/>
</svg>
