<svg width="48" height="48" viewBox="0 0 48 48" fill="none" xmlns="http://www.w3.org/2000/svg">
<path d="M48 22.8L32.64 21.36C31.92 21.36 31.44 20.4 31.92 19.68L41.76 7.92L40.08 6.24L28.32 16.08C27.6 16.56 26.88 16.08 26.64 15.36L25.2 0H22.8L21.36 15.12C21.36 15.84 20.4 16.32 19.68 15.84L7.92 6.24L6.24 7.92L15.84 19.68C16.32 20.4 15.84 21.12 15.12 21.36L0 22.8V25.2L15.36 26.64C16.08 26.64 16.56 27.6 16.08 28.32L6.48 40.08L8.16 41.76L19.92 31.92C20.64 31.44 21.36 31.92 21.6 32.64L22.8 48H25.2L26.64 32.64C26.64 31.92 27.6 31.44 28.32 31.92L40.08 41.76L41.76 40.08L31.92 28.32C31.44 27.6 31.92 26.88 32.64 26.64L48 25.2V22.8Z" fill="#D06E51"/>
</svg>
