<svg width="49" height="50" viewBox="0 0 49 50" fill="none" xmlns="http://www.w3.org/2000/svg">
<path d="M49 23.692L33.32 22.222C32.585 22.222 32.095 21.242 32.585 20.507L42.63 8.50199L40.915 6.78699L28.91 16.832C28.175 17.322 27.44 16.832 27.195 16.097L25.725 0.416992H23.275L21.805 15.852C21.805 16.587 20.825 17.077 20.09 16.587L8.085 6.78699L6.37 8.50199L16.17 20.507C16.66 21.242 16.17 21.977 15.435 22.222L0 23.692V26.142L15.68 27.612C16.415 27.612 16.905 28.592 16.415 29.327L6.615 41.332L8.33 43.047L20.335 33.002C21.07 32.512 21.805 33.002 22.05 33.737L23.275 49.417H25.725L27.195 33.737C27.195 33.002 28.175 32.512 28.91 33.002L40.915 43.047L42.63 41.332L32.585 29.327C32.095 28.592 32.585 27.857 33.32 27.612L49 26.142V23.692Z" fill="#BB9CFE"/>
</svg>
